<?xml version="1.0" encoding="utf-8"?>
<!-- Generator: Adobe Illustrator 19.0.0, SVG Export Plug-In . SVG Version: 6.00 Build 0)  -->
<svg version="1.1" id="Capa_1" xmlns="http://www.w3.org/2000/svg" xmlns:xlink="http://www.w3.org/1999/xlink" x="0px" y="0px"
	 viewBox="0 0 80.7 80.7" style="enable-background:new 0 0 80.7 80.7;" xml:space="preserve">
<style type="text/css">
	.st0{fill:none;stroke:#FFF9F2;stroke-width:3;stroke-miterlimit:10;}
	.st1{fill:#FFF9F2;stroke:#FFF9F2;stroke-width:0.798;stroke-miterlimit:10;}
	.st2{fill:#FFF9F2;stroke:#FFF9F2;stroke-miterlimit:10;}
</style>
<g id="XMLID_16_">
	<circle id="XMLID_259_" class="st0" cx="40.3" cy="40.3" r="38.8"/>
	<path id="XMLID_258_" class="st1" d="M43.3,23.9c0.3-0.9,0.8-1.7,1.5-2.2c0.6-0.6,1.4-1,2.4-1.2c0.9-0.2,2-0.3,3.2-0.3
		c0.9,0,1.7-0.1,2.3-0.3s1-0.6,1.1-1.3l0.1-2.6c0.1-1.2-0.9-2.2-2.2-2.4c-1-0.1-2-0.2-3.1-0.2c-2.4,0-4.5,0.3-6.4,0.9
		c-1.9,0.6-3.5,1.5-4.8,2.7c-1.3,1.2-2.4,2.6-3.1,4.3c-0.7,1.7-1.1,3.6-1.1,5.7v3.3c0,0.1-0.1,0.2-0.2,0.2h-4.7
		c-0.8,0-1.5,0.6-1.5,1.3l0,0v1.6v2.7c0,0.8,0.7,1.5,1.6,1.5h4.6c0.1,0,0.1,0.1,0.1,0.1v26.7c0,1.5,1.3,2.7,2.9,2.7h4.6
		c1.1,0,2-0.8,2-1.8V37.9c0-0.1,0.1-0.1,0.1-0.1h9.1c0.6,0,1.1-0.4,1.1-1v-1.5v-3.3v-0.4c0-0.5-0.5-1-1.1-1h-9
		c-0.2,0-0.3-0.1-0.3-0.3v-2.9C42.8,26,43,24.9,43.3,23.9z"/>
</g>
<g id="XMLID_338_">
	<g id="XMLID_367_">
		<path id="XMLID_396_" class="st2" d="M-354-364.7v-29.6h9.7c2.3,0,4.5,0.4,6.4,1.1c1.9,0.7,3.6,1.8,5,3.1c1.4,1.3,2.5,2.9,3.3,4.7
			c0.8,1.8,1.2,3.7,1.2,5.8c0,2.2-0.4,4.2-1.2,6c-0.8,1.8-1.9,3.4-3.3,4.7c-1.4,1.3-3,2.4-4.9,3.1c-1.9,0.7-3.8,1.1-6,1.1H-354z
			 M-350.2-366.6h4.6c2.3,0,4.3-0.4,5.9-1.2c1.6-0.8,2.9-1.8,4-3c1-1.2,1.8-2.6,2.3-4.2c0.5-1.5,0.7-3.1,0.7-4.6
			c0-1.7-0.3-3.3-0.8-4.9c-0.6-1.6-1.4-2.9-2.5-4.1c-1.1-1.2-2.4-2.1-4-2.9c-1.6-0.7-3.4-1.1-5.5-1.1h-4.6V-366.6z"/>
		<path id="XMLID_394_" class="st2" d="M-305.9-390.8v2.1h-13.5v9.4h11.6v1.7h-11.6v10.9h13.5v2.1h-16.9v-26.1H-305.9z"/>
		<path id="XMLID_392_" class="st2" d="M-260.5-369c-0.4,0.4-0.9,0.9-1.6,1.5c-0.7,0.6-1.6,1.1-2.6,1.6c-1.1,0.5-2.3,0.9-3.7,1.2
			c-1.4,0.3-3,0.5-4.8,0.5c-2.8,0-5.3-0.4-7.3-1.3c-2.1-0.9-3.7-2.1-5.1-3.5c-1.3-1.4-2.3-3.1-2.9-5s-1-3.8-1-5.8
			c0-2.3,0.4-4.3,1.2-6.2c0.8-1.8,1.9-3.4,3.3-4.7c1.4-1.3,3.2-2.3,5.2-3c2-0.7,4.2-1.1,6.7-1.1c1.7,0,3.2,0.2,4.5,0.5
			c1.3,0.3,2.5,0.8,3.5,1.4c1,0.6,1.8,1.3,2.5,2.1s1.2,1.7,1.6,2.7h-3.1c-0.2-0.6-0.5-1.2-1-1.8c-0.5-0.6-1.1-1.1-1.9-1.5
			c-0.8-0.5-1.7-0.8-2.7-1.1c-1-0.3-2.1-0.4-3.3-0.4c-1.8,0-3.4,0.3-4.9,1c-1.5,0.6-2.8,1.5-3.9,2.7c-1.1,1.2-1.9,2.5-2.6,4.1
			c-0.6,1.6-0.9,3.3-0.9,5.3c0,1.8,0.3,3.5,0.9,5.2c0.6,1.7,1.4,3.1,2.6,4.4c1.1,1.3,2.5,2.3,4.2,3c1.7,0.8,3.6,1.1,5.8,1.1
			c3.9,0,7.3-1.4,10.2-4.1L-260.5-369z"/>
		<path id="XMLID_389_" class="st2" d="M-253.5-372.4l-3.3,7.7h-1.7l11-26.1h1.9l12.2,26.1h-3.6l-3.6-7.7H-253.5z M-247.3-386.7
			h-0.1l-5.4,12.6h11.4L-247.3-386.7z"/>
		<path id="XMLID_387_" class="st2" d="M-205.1-390.8v26.6h-0.2l-20.7-20.4h-0.1v20h-1.7v-26.6h0.2l20.7,20.4h0.1v-20H-205.1z"/>
		<path id="XMLID_385_" class="st2" d="M-192.8-364.7h-3.4v-26.1h3.4v11.4h15.6v-11.4h3.4v26.1h-3.4v-13h-15.6V-364.7z"/>
		<path id="XMLID_371_" class="st2" d="M-163.2-372.4l-3.3,7.7h-1.7l11-26.1h1.9l12.2,26.1h-3.6l-3.6-7.7H-163.2z M-156.9-386.7
			h-0.1l-5.4,12.6h11.4L-156.9-386.7z"/>
	</g>
	<g id="XMLID_345_">
		<path id="XMLID_353_" class="st2" d="M-336.3-412.7l-3.7,8.7h-1.9l12.5-29.6h2.1l13.8,29.6h-4.1l-4.1-8.7H-336.3z M-329.3-428.9
			h-0.2l-6.1,14.2h12.9L-329.3-428.9z"/>
		<path id="XMLID_349_" class="st2" d="M-285.1-430.1v26.6h-0.2L-306-424h-0.1v20h-1.7v-26.6h0.2l20.7,20.4h0.1v-20H-285.1z"/>
		<path id="XMLID_346_" class="st2" d="M-274.5-411.7l-3.3,7.7h-1.7l11-26.1h1.9l12.2,26.1h-3.6l-3.6-7.7H-274.5z M-268.3-426h-0.1
			l-5.4,12.6h11.4L-268.3-426z"/>
	</g>
	<path id="XMLID_339_" class="st2" d="M-155.7-428.7c-1.3,0-0.5,0.8-5.1-1.8s-8.6-3.5-13.5-3.2c-4.9,0.3-10.6,0.7-19.7,6.3
		c-0.7,0-4.5-0.2-5.9-0.2c-1.7,0-4.4,0.2-4.7,0.2c-9.1-5.6-14.8-6-19.7-6.3c-4.9-0.3-9,0.6-13.6,3.2c-4.6,2.5-3.7,1.8-5.1,1.8
		c-1.2,0,0,3.1,0,3.1c1.2,0.4,2.5,0.5,2.5,0.5c-1.8,13.9,4.2,22.3,16.3,23.1c12.1,0.8,16.1-7.5,16.1-7.5c2.9-5.3,3.9-13.2,3.9-13.2
		c1.4-1,8.7-1,10.1,0c0,0,0.7,7.9,3.6,13.2c0,0,3.9,8.3,16,7.5c12.1-0.8,18-9.1,16.3-23.1c0,0,1.4-0.1,2.5-0.5
		C-155.7-425.6-154.4-428.7-155.7-428.7z M-222.7-402.8c-20.3,0.8-16.9-22.5-14.6-25.1c0,0,18.4-11.6,31.5,3.4
		C-205.8-424.5-202.4-403.6-222.7-402.8z M-204.6-427.3C-204.6-427.3-204.6-427.3-204.6-427.3l0.2,0
		C-204.6-427.3-204.6-427.3-204.6-427.3z M-194-427.3C-194-427.3-194-427.3-194-427.3L-194-427.3C-194-427.3-194-427.3-194-427.3z
		 M-176-402.8c-20.3-0.8-16.9-21.7-16.9-21.7c13.1-14.9,31.5-3.4,31.5-3.4C-159.2-425.3-155.7-402-176-402.8z"/>
</g>
</svg>
