<?xml version="1.0" encoding="utf-8"?>
<!-- Generator: Adobe Illustrator 19.0.0, SVG Export Plug-In . SVG Version: 6.00 Build 0)  -->
<svg version="1.1" id="Capa_1" xmlns="http://www.w3.org/2000/svg" xmlns:xlink="http://www.w3.org/1999/xlink" x="0px" y="0px"
	 viewBox="0 0 212.2 70.5" style="enable-background:new 0 0 212.2 70.5;" xml:space="preserve">
<style type="text/css">
	.st0{fill:#FFF9F2;stroke:#FFF9F2;stroke-miterlimit:10;}
</style>
<g id="XMLID_338_">
	<g id="XMLID_367_">
		<path id="XMLID_396_" class="st0" d="M0.5,69.5V39.9h9.7c2.3,0,4.5,0.4,6.4,1.1c1.9,0.7,3.6,1.8,5,3.1c1.4,1.3,2.5,2.9,3.3,4.7
			c0.8,1.8,1.2,3.7,1.2,5.8c0,2.2-0.4,4.2-1.2,6c-0.8,1.8-1.9,3.4-3.3,4.7c-1.4,1.3-3,2.4-4.9,3.1c-1.9,0.7-3.8,1.1-6,1.1H0.5z
			 M4.3,67.6H9c2.3,0,4.3-0.4,5.9-1.2c1.6-0.8,2.9-1.8,4-3c1-1.2,1.8-2.6,2.3-4.2c0.5-1.5,0.7-3.1,0.7-4.6c0-1.7-0.3-3.3-0.8-4.9
			c-0.6-1.6-1.4-2.9-2.5-4.1c-1.1-1.2-2.4-2.1-4-2.9c-1.6-0.7-3.4-1.1-5.5-1.1H4.3V67.6z"/>
		<path id="XMLID_394_" class="st0" d="M48.6,43.4v2.1H35.2v9.4h11.6v1.7H35.2v10.9h13.5v2.1H31.8V43.4H48.6z"/>
		<path id="XMLID_392_" class="st0" d="M94,65.2c-0.4,0.4-0.9,0.9-1.6,1.5c-0.7,0.6-1.6,1.1-2.6,1.6s-2.3,0.9-3.7,1.2
			c-1.4,0.3-3,0.5-4.8,0.5c-2.8,0-5.3-0.4-7.3-1.3c-2.1-0.9-3.7-2.1-5.1-3.5c-1.3-1.4-2.3-3.1-2.9-5s-1-3.8-1-5.8
			c0-2.3,0.4-4.3,1.2-6.2c0.8-1.8,1.9-3.4,3.3-4.7c1.4-1.3,3.2-2.3,5.2-3c2-0.7,4.2-1.1,6.7-1.1c1.7,0,3.2,0.2,4.5,0.5
			c1.3,0.3,2.5,0.8,3.5,1.4c1,0.6,1.8,1.3,2.5,2.1c0.7,0.8,1.2,1.7,1.6,2.7h-3.1c-0.2-0.6-0.5-1.2-1-1.8c-0.5-0.6-1.1-1.1-1.9-1.5
			s-1.7-0.8-2.7-1.1c-1-0.3-2.1-0.4-3.3-0.4c-1.8,0-3.4,0.3-4.9,1c-1.5,0.6-2.8,1.5-3.9,2.7c-1.1,1.2-1.9,2.5-2.6,4.1
			c-0.6,1.6-0.9,3.3-0.9,5.3c0,1.8,0.3,3.5,0.9,5.2c0.6,1.7,1.4,3.1,2.6,4.4c1.1,1.3,2.5,2.3,4.2,3c1.7,0.8,3.6,1.1,5.8,1.1
			c3.9,0,7.3-1.4,10.2-4.1L94,65.2z"/>
		<path id="XMLID_389_" class="st0" d="M101,61.8l-3.3,7.7H96l11-26.1h1.9L121,69.5h-3.6l-3.6-7.7H101z M107.2,47.5h-0.1l-5.4,12.6
			h11.4L107.2,47.5z"/>
		<path id="XMLID_387_" class="st0" d="M149.4,43.4v26.6h-0.2l-20.7-20.4h-0.1v20h-1.7V42.9h0.2l20.7,20.4h0.1v-20H149.4z"/>
		<path id="XMLID_385_" class="st0" d="M161.7,69.5h-3.4V43.4h3.4v11.4h15.6V43.4h3.4v26.1h-3.4v-13h-15.6V69.5z"/>
		<path id="XMLID_371_" class="st0" d="M191.3,61.8l-3.3,7.7h-1.7l11-26.1h1.9l12.2,26.1h-3.6l-3.6-7.7H191.3z M197.6,47.5h-0.1
			l-5.4,12.6h11.4L197.6,47.5z"/>
	</g>
	<g id="XMLID_345_">
		<path id="XMLID_353_" class="st0" d="M18.2,21.5l-3.7,8.7h-1.9L25,0.6h2.1l13.8,29.6h-4.1l-4.1-8.7H18.2z M25.2,5.3h-0.2L19,19.6
			h12.9L25.2,5.3z"/>
		<path id="XMLID_349_" class="st0" d="M69.4,4.1v26.6h-0.2L48.5,10.2h-0.1v20h-1.7V3.6h0.2L67.5,24h0.1v-20H69.4z"/>
		<path id="XMLID_346_" class="st0" d="M80,22.5l-3.3,7.7H75L86,4.1h1.9l12.2,26.1h-3.6l-3.6-7.7H80z M86.2,8.2h-0.1l-5.4,12.6h11.4
			L86.2,8.2z"/>
	</g>
	<path id="XMLID_339_" class="st0" d="M198.8,5.5c-1.3,0-0.5,0.8-5.1-1.8s-8.6-3.5-13.5-3.2c-4.9,0.3-10.6,0.7-19.7,6.3
		c-0.7,0-4.5-0.2-5.9-0.2c-1.7,0-4.4,0.2-4.7,0.2c-9.1-5.6-14.8-6-19.7-6.3c-4.9-0.3-9,0.6-13.6,3.2c-4.6,2.5-3.7,1.8-5.1,1.8
		c-1.2,0,0,3.1,0,3.1c1.2,0.4,2.5,0.5,2.5,0.5c-1.8,13.9,4.2,22.3,16.3,23.1c12.1,0.8,16.1-7.5,16.1-7.5c2.9-5.3,3.9-13.2,3.9-13.2
		c1.4-1,8.7-1,10.1,0c0,0,0.7,7.9,3.6,13.2c0,0,3.9,8.3,16,7.5c12.1-0.8,18-9.1,16.3-23.1c0,0,1.4-0.1,2.5-0.5
		C198.8,8.6,200.1,5.5,198.8,5.5z M131.8,31.4C111.5,32.2,115,8.9,117.3,6.3c0,0,18.4-11.6,31.5,3.4
		C148.7,9.7,152.2,30.6,131.8,31.4z M149.9,6.9C149.9,6.9,149.9,6.9,149.9,6.9l0.2,0C149.9,6.9,149.9,6.9,149.9,6.9z M160.5,6.9
		C160.5,6.9,160.5,6.9,160.5,6.9L160.5,6.9C160.5,6.9,160.5,6.9,160.5,6.9z M178.5,31.4c-20.3-0.8-16.9-21.7-16.9-21.7
		c13.1-14.9,31.5-3.4,31.5-3.4C195.4,8.9,198.8,32.2,178.5,31.4z"/>
</g>
</svg>
