<?xml version="1.0" encoding="utf-8"?>
<!-- Generator: Adobe Illustrator 19.0.0, SVG Export Plug-In . SVG Version: 6.00 Build 0)  -->
<svg version="1.1" id="Capa_1" xmlns="http://www.w3.org/2000/svg" xmlns:xlink="http://www.w3.org/1999/xlink" x="0px" y="0px"
	 viewBox="0 0 287.8 95.4" style="enable-background:new 0 0 287.8 95.4;" xml:space="preserve">
<style type="text/css">
	.st0{fill:#FFF9F2;stroke:#FFF9F2;stroke-miterlimit:10;}
</style>
<g id="XMLID_303_">
	<g id="XMLID_319_">
		<path id="XMLID_334_" class="st0" d="M0.5,94.2V54h13.2c3.2,0,6.1,0.5,8.7,1.5c2.6,1,4.9,2.4,6.8,4.2c1.9,1.8,3.4,3.9,4.4,6.3
			c1.1,2.4,1.6,5.1,1.6,7.9c0,2.9-0.5,5.7-1.6,8.1c-1.1,2.5-2.6,4.6-4.5,6.4c-1.9,1.8-4.1,3.2-6.6,4.2c-2.5,1-5.2,1.5-8.1,1.5H0.5z
			 M5.7,91.7H12c3.1,0,5.8-0.5,8-1.6c2.2-1.1,4-2.4,5.4-4.1c1.4-1.7,2.4-3.6,3.1-5.7c0.6-2.1,1-4.2,1-6.2c0-2.3-0.4-4.5-1.1-6.6
			c-0.8-2.1-1.9-4-3.3-5.6c-1.5-1.6-3.3-2.9-5.5-3.9c-2.2-1-4.7-1.4-7.5-1.4H5.7V91.7z"/>
		<path id="XMLID_332_" class="st0" d="M65.9,58.7v2.8H47.6v12.7h15.7v2.3H47.6v14.8h18.3v2.8H43V58.7H65.9z"/>
		<path id="XMLID_330_" class="st0" d="M127.6,88.4c-0.5,0.6-1.2,1.2-2.2,2c-1,0.8-2.2,1.5-3.6,2.2s-3.1,1.2-5,1.7
			c-1.9,0.5-4.1,0.7-6.6,0.7c-3.9,0-7.2-0.6-10-1.8c-2.8-1.2-5.1-2.8-6.9-4.8c-1.8-2-3.1-4.2-4-6.8S88,76.4,88,73.7
			c0-3.1,0.5-5.9,1.6-8.4c1.1-2.5,2.6-4.6,4.5-6.4c2-1.8,4.3-3.1,7-4.1c2.7-1,5.8-1.4,9.1-1.4c2.3,0,4.3,0.2,6.1,0.7
			c1.8,0.5,3.4,1.1,4.7,1.9c1.3,0.8,2.5,1.8,3.4,2.9s1.6,2.3,2.2,3.6h-4.2c-0.3-0.8-0.7-1.6-1.4-2.4c-0.7-0.8-1.5-1.5-2.6-2.1
			s-2.3-1.1-3.6-1.5c-1.4-0.4-2.9-0.6-4.5-0.6c-2.4,0-4.6,0.4-6.7,1.3c-2,0.9-3.8,2.1-5.3,3.7c-1.5,1.6-2.6,3.4-3.5,5.6
			c-0.8,2.2-1.2,4.5-1.2,7.1c0,2.4,0.4,4.8,1.2,7.1c0.8,2.3,1.9,4.2,3.5,6c1.5,1.7,3.4,3.1,5.7,4.1c2.3,1,4.9,1.5,7.9,1.5
			c5.4,0,10-1.8,13.9-5.5L127.6,88.4z"/>
		<path id="XMLID_327_" class="st0" d="M137,83.8l-4.5,10.4h-2.3l15-35.5h2.5l16.5,35.5h-4.9l-4.9-10.4H137z M145.5,64.4h-0.2
			L138,81.5h15.5L145.5,64.4z"/>
		<path id="XMLID_325_" class="st0" d="M202.8,58.7v36.1h-0.3l-28.1-27.7h-0.2v27.1h-2.3V58.1h0.3l28.1,27.7h0.2V58.7H202.8z"/>
		<path id="XMLID_323_" class="st0" d="M219.6,94.2H215V58.7h4.6v15.5h21.2V58.7h4.6v35.5h-4.6V76.6h-21.2V94.2z"/>
		<path id="XMLID_320_" class="st0" d="M259.8,83.8l-4.5,10.4H253l15-35.5h2.5l16.5,35.5h-4.9l-4.9-10.4H259.8z M268.3,64.4h-0.2
			l-7.3,17.1h15.5L268.3,64.4z"/>
	</g>
	<g id="XMLID_310_">
		<path id="XMLID_316_" class="st0" d="M24.5,29l-5,11.8h-2.6l17-40.2h2.9l18.7,40.2h-5.6L44.3,29H24.5z M34.1,7.1h-0.2l-8.3,19.3
			h17.5L34.1,7.1z"/>
		<path id="XMLID_314_" class="st0" d="M94.1,5.3v36.1h-0.3L65.7,13.7h-0.2v27.1h-2.3V4.7h0.3l28.1,27.7h0.2V5.3H94.1z"/>
		<path id="XMLID_311_" class="st0" d="M108.5,30.4L104,40.8h-2.3l15-35.5h2.5l16.5,35.5h-4.9L126,30.4H108.5z M117,11h-0.2
			l-7.3,17.1h15.5L117,11z"/>
	</g>
	<path id="XMLID_304_" class="st0" d="M270,7.3c-1.8,0-0.6,1-6.9-2.4s-11.7-4.7-18.4-4.3c-6.7,0.4-14.4,1-26.7,8.6
		c-1-0.1-6.1-0.2-8.1-0.2c-2.3,0-5.9,0.2-6.4,0.2c-12.4-7.6-20.2-8.2-26.8-8.6c-6.7-0.4-12.2,0.9-18.4,4.3s-5.1,2.4-6.9,2.4
		c-1.7,0,0,4.2,0,4.2c1.6,0.5,3.5,0.7,3.5,0.7c-2.4,18.9,5.7,30.3,22.1,31.4c16.4,1,21.8-10.2,21.8-10.2c3.9-7.2,5.3-18,5.3-18
		c2-1.4,11.8-1.4,13.8,0c0,0,1,10.8,4.9,18c0,0,5.3,11.2,21.8,10.2c16.4-1,24.5-12.4,22.1-31.4c0,0,1.8-0.1,3.5-0.7
		C270,11.5,271.7,7.3,270,7.3z M179,42.5c-27.6,1-22.9-30.5-19.8-34.1c0,0,25-15.7,42.7,4.6C201.9,13,206.6,41.5,179,42.5z
		 M203.5,9.2C203.5,9.2,203.5,9.1,203.5,9.2l0.2,0C203.6,9.1,203.5,9.2,203.5,9.2z M217.9,9.1c0,0,0,0-0.1,0L217.9,9.1
		C217.9,9.1,217.9,9.1,217.9,9.1z M242.4,42.5c-27.6-1-22.9-29.5-22.9-29.5c17.8-20.3,42.7-4.6,42.7-4.6
		C265.3,11.9,270,43.5,242.4,42.5z"/>
</g>
</svg>
