<?xml version="1.0" encoding="utf-8"?>
<!-- Generator: Adobe Illustrator 19.0.0, SVG Export Plug-In . SVG Version: 6.00 Build 0)  -->
<svg version="1.1" id="Capa_1" xmlns="http://www.w3.org/2000/svg" xmlns:xlink="http://www.w3.org/1999/xlink" x="0px" y="0px"
	 viewBox="0 0 178.9 64.8" style="enable-background:new 0 0 178.9 64.8;" xml:space="preserve">
<style type="text/css">
	.st0{fill:#FFF9F2;stroke:#FFF9F2;stroke-miterlimit:10;}
</style>
<path id="XMLID_702_" class="st0" d="M177.3,10.6c-2.7,0-1,1.5-10.2-3.6c-9.2-5.1-17.3-7-27.2-6.4C130,1.1,118.6,2,100.2,13.3
	c-1.4-0.1-9-0.3-12-0.3c-3.4,0-8.8,0.3-9.4,0.4C60.5,2,49,1.1,39.1,0.6C29.2,0,21.1,1.9,11.8,7s-7.5,3.6-10.2,3.6
	c-2.5,0,0,6.2,0,6.2c2.4,0.8,5.1,1,5.1,1c-3.6,28.1,8.4,44.9,32.7,46.4c24.4,1.5,32.3-15.1,32.3-15.1c5.8-10.7,7.8-26.6,7.8-26.6
	c2.9-2,17.5-2,20.4,0c0,0,1.4,15.9,7.2,26.6c0,0,7.9,16.6,32.3,15.1c24.4-1.5,36.3-18.4,32.7-46.4c0,0,2.7-0.2,5.1-1
	C177.3,16.8,179.8,10.6,177.3,10.6z M42.5,62.7C1.6,64.2,8.6,17.4,13.1,12.2c0,0,37-23.3,63.3,6.7C76.4,19,83.4,61.2,42.5,62.7z
	 M78.9,13.3C78.9,13.3,78.8,13.3,78.9,13.3l0.3,0C78.9,13.3,78.9,13.3,78.9,13.3z M100.2,13.3c0,0,0,0-0.2,0L100.2,13.3
	C100.2,13.3,100.2,13.3,100.2,13.3z M136.4,62.7C95.5,61.2,102.4,19,102.4,19c26.3-30,63.3-6.7,63.3-6.7
	C170.3,17.4,177.3,64.2,136.4,62.7z"/>
</svg>
