<?xml version="1.0" encoding="utf-8"?>
<!-- Generator: Adobe Illustrator 19.0.0, SVG Export Plug-In . SVG Version: 6.00 Build 0)  -->
<svg version="1.1" id="Capa_1" xmlns="http://www.w3.org/2000/svg" xmlns:xlink="http://www.w3.org/1999/xlink" x="0px" y="0px"
	 viewBox="0 0 286.2 294" style="enable-background:new 0 0 286.2 294;" xml:space="preserve">
<style type="text/css">
	.st0{fill:#FFF9F2;}
</style>
<g id="XMLID_433_">
	<g id="XMLID_422_">
		<g id="XMLID_638_">
			<g id="XMLID_642_">
				<g id="XMLID_643_">
					<g id="XMLID_644_">
						<path id="XMLID_829_" class="st0" d="M77.9,235.4c0,0.4,0.4,1.1,0.7,0.7l-0.2-1.4L77.9,235.4z"/>
						<path id="XMLID_828_" class="st0" d="M81.8,236.4c0.3-0.8,0.4-2.1-0.4-3.1c0,1.4-0.3,1-0.3,2.6c-0.4,0.3-0.9-0.1-1-0.5
							c0,0.4-0.8,0-0.7,0.9c1,0.7,1.7,0.4,2.1-0.7C81.8,235.8,81.7,236.2,81.8,236.4z"/>
						<path id="XMLID_827_" class="st0" d="M125,218.1l-0.3,0C124.8,218.2,124.9,218.2,125,218.1z"/>
						<path id="XMLID_826_" class="st0" d="M150.6,204.1c-0.2,0.1-0.2,0.3-0.1,0.4C150.6,204.3,150.7,204.1,150.6,204.1z"/>
						<path id="XMLID_825_" class="st0" d="M155.6,202.6c-0.1,0-0.2,0.1-0.3,0.1C155.5,202.7,155.6,202.7,155.6,202.6z"/>
						<path id="XMLID_824_" class="st0" d="M125,218.1l0.9,0C125.8,217.7,125.4,218,125,218.1z"/>
						<path id="XMLID_823_" class="st0" d="M86.5,231c-0.1,0.1-0.2,0.3-0.2,0.5c0.1-0.1,0.2-0.2,0.3-0.3
							C86.5,231.1,86.5,231,86.5,231z"/>
						<path id="XMLID_822_" class="st0" d="M114.1,225l-0.2,0.1c0,0.2,0,0.4,0.1,0.6L114.1,225z"/>
						<path id="XMLID_821_" class="st0" d="M105.3,229.5c0.2-0.1-0.2-1.1-0.3-1.6c0.1,0.5,0,0.7-0.1,0.9
							C105,229,105.1,229.3,105.3,229.5z"/>
						<path id="XMLID_820_" class="st0" d="M90.3,234.2l-0.2,0.3C90.2,234.4,90.2,234.3,90.3,234.2z"/>
						<path id="XMLID_819_" class="st0" d="M120.5,222c0.1,0.1,0.2,0.3,0.3,0.3C120.7,222.2,120.6,222.1,120.5,222z"/>
						<path id="XMLID_818_" class="st0" d="M276.2,10.9c0.1,0,0.1,0,0.2,0C276.3,10.9,276.2,10.8,276.2,10.9z"/>
						<path id="XMLID_817_" class="st0" d="M282.7,0.2l0,0.2c0.2,0,0.4,0.1,0.6,0.1L282.7,0.2z"/>
						<path id="XMLID_816_" class="st0" d="M164,198.7C164,198.7,164,198.7,164,198.7C163.9,199,164,198.9,164,198.7z"/>
						<path id="XMLID_815_" class="st0" d="M226.7,142.3c-1.4,0.1,0-2-1.7-1.7C225.4,140.8,225.4,142.8,226.7,142.3z"/>
						<path id="XMLID_814_" class="st0" d="M86.8,231c0.1-0.1,0.2-0.1,0.4-0.2C86.9,230.9,86.8,230.9,86.8,231z"/>
						<path id="XMLID_813_" class="st0" d="M225,140.6L225,140.6l-0.2,0C224.8,140.7,224.9,140.7,225,140.6z"/>
						<path id="XMLID_812_" class="st0" d="M180.8,185.7c-0.2-0.1-0.3-0.2-0.5-0.3C180.4,185.6,180.5,185.6,180.8,185.7z"/>
						<path id="XMLID_811_" class="st0" d="M167.2,193.8l0.4-0.1C167.4,193.7,167.3,193.7,167.2,193.8z"/>
						<path id="XMLID_810_" class="st0" d="M186.2,179.4c0.2-0.1,0.4,0,0.5-0.3c-0.1,0-0.1,0-0.2-0.1
							C186.6,179.3,186.5,179.4,186.2,179.4z"/>
						<path id="XMLID_809_" class="st0" d="M192.7,174c-0.1,0-0.2,0-0.3-0.1c-0.1,0.1-0.1,0.1-0.2,0.2L192.7,174z"/>
						<path id="XMLID_808_" class="st0" d="M272.4,35.5c0.3-0.1,0.7-0.1,1.1-0.1C272.6,35.3,272.6,34.1,272.4,35.5z"/>
						<path id="XMLID_807_" class="st0" d="M86.7,231.5c-0.1-0.3-0.1-0.4,0-0.5c-0.1,0-0.2,0.1-0.2,0.2
							C86.6,231.3,86.6,231.5,86.7,231.5z"/>
						<path id="XMLID_806_" class="st0" d="M180.9,172.3l1.1-0.7C181.7,171.8,181.2,172,180.9,172.3z"/>
						<path id="XMLID_805_" class="st0" d="M251.3,90.6l0-0.3C251.2,90.3,251.2,90.4,251.3,90.6z"/>
						<path id="XMLID_804_" class="st0" d="M184.9,169c0.4,0.2,0.8,0.2,1.1,0.1c0-0.1,0-0.2-0.1-0.3L184.9,169z"/>
						<path id="XMLID_803_" class="st0" d="M273.5,35.4C273.5,35.4,273.5,35.4,273.5,35.4C273.5,35.4,273.5,35.4,273.5,35.4z"/>
						<path id="XMLID_798_" class="st0" d="M272.7,26.5c-0.3,1.2,1.3,0.8,2.1,1.3c0.1,1.5-1.2,0.5-2,0.8c0.2,1,1.4,2,1.2,2.6
							c-0.2,0-0.4,0.1-0.6-0.1c0.9,1.2-0.6,2.8,0.6,4.3c-0.1,0.1-0.3,0.1-0.4,0.1c0.8,0,1.5,0.1,2,0.3c-0.1,0.6,0.7,1.2-0.3,1.2
							c0.1-0.3-0.3-0.5-0.5-0.7l0.3,0.7c-1.5,0.2-0.3-0.9-1.3-1.1c0.2,1.2,1,2.8,0.4,3.6c-1.4-0.2,0-2.1-1.4-1.3l0.8-1.2
							c-2.3,0.5,0.3-0.8-2.1-0.4c-0.8,1.6,0.3,2.1-0.6,3.7c0.6,0.6,1.1,0.2,1.7,0.7c0.6,2.8-3.8,1-2.6,3.3c0.7,0.7,2.3,1.4,1.1,2.4
							l-1.3-0.9c-0.6,1.6,1.8,1.6,0.4,3c-0.5-0.5-0.1-1.5-0.4-1.3c-1.5,0.8,0.6,1.1,0.4,1.9l-1.4-0.2c-0.4,1.8-0.1,4-0.5,6
							c-0.3-0.2-0.6-0.7-1.2-0.4c-0.1,1.3-0.6,2.6-1.2,3.8c-0.7,1.2-1.6,2.3-2.4,3.3l0.8,1.3c-0.1,0.2-0.6,0.2-0.8-0.1
							c-0.8,0.7,0.7,0.3,0.9,0.9c-0.1,0.5-0.9,0.4-1.1,0c0.3,1.9,0.2,5.4-1.7,6.5l-0.2-0.5c-1,1.1,1.6,2.4,0,3.2l-0.1-0.3
							c-0.8,1.3-1.4,2.8-2,4.2c-0.6,1.4-1.5,2.6-2.7,3.2c1.3,1.1-2,2.4,0,3.6c-1.8,1-2,0.4-3.7,2.2c-0.4,0.5,0.8,1.5,0.7,2.4
							l-1.1-0.6l0.6,1.6l-1.6-0.2l-0.1,0.8c0.2-0.2,0.8-0.3,1.1-0.1c-0.1,1.3-2.1,2.1-2.7,1.8l-0.4,3c-0.4-0.3-0.3-0.8-0.4-1.3
							c0.4,1.9-1.3-0.4-0.9,1.4c0.3,0,0.6,0.5,0.8,0.6c-1,0.2-1.8,1.5-2.1,2.7l-0.6-0.6c-1.2,1.7-1.9,3.9-3.1,5.9
							c0.8-0.5,1.9,0.4,1.7,1.1l-1.2-0.5c0.4,0.8,0.8-0.3,1.1,0.9c-0.6,0.7-1.6-0.3-1.7-0.9l-0.2,1.1c-0.4-0.2-0.4-0.5-0.8-0.8
							c0.4,0.8-2.1,0.8-1.3,2.1l-0.4-0.2c-1.3,1.9-1.5,3.1-2.5,4.7c0.9,0.7,0.3,1.1,0.7,2.1c-1.1,0.9-2.7,1.7-3.6,3.1
							c-0.2,1.3,0.6,0.8,0.8,1.7c-0.9-0.5-1.8,0.9-1.9-0.2c-1.1,1.7-1.3,2.2-2.2,4.8c0.5,0,0.8-0.1,1,0.2c-0.1,0.5-1,0.6-1.3,0.2
							l0-0.2c-0.6,3.2-6.4,3.4-6.1,6.5l0-0.2l-0.7,2.5c-0.8,0.7-0.2-1-1.2-0.8c-0.3,3-2.8,2.9-3.2,5.3c-3.3-0.7-3.7,4.4-6.6,4.8
							l0.6,0.4c0.1,0.9-0.8,0.2-1.2,0.4c0.4,0.3,0.9,0,0.9,0.5c-1.3,2.1-3.2,3.7-5.3,5.2c-2.1,1.4-4.2,2.9-6.2,4.3
							c-1.4,1.1,1.8,3.3-1,3.7l-0.5-1.4c-0.8,1.8-2.1,3.1-3.5,4.4c-1.4,1.2-2.8,2.4-3.7,4.1c0-0.4-0.3-0.7,0-0.9
							c-1.2-0.2-2.1,1.8-1.6,2.4c-0.5,0.3-0.6-0.4-1.1-0.5c-0.9,0.1-0.6,2.2-1.5,1.7c-0.2-0.1,0-0.4,0-0.5c-0.1,0.7-1.8,1.4-0.7,1.9
							c-1.4,0.5-1.6,2-2.9,2.2c0.3,1.4-2.1,1-1.2,2.5c-1.1-1.5-2.7,0.4-2.9,1.6c-0.1-0.6-0.9,0-1.2-0.8c-0.7,0.6-1.2,1.4-0.5,2.1
							c-2.7-0.6-1.7,3.6-4.2,2c-1.6,2.6-3.4,4.6-5.2,6.6c-1-1.5,2.2-1.9,1-3.3c-1.5,2.1-1.7,4.2-3.9,5.3c-0.7,0.2-0.2-0.8-0.2-1.2
							c-1.5,2.1-4,2.6-5.2,4.7c-0.1-0.1,0-0.4,0.1-0.7c-0.3,0.3-1,0.4-0.5,1l0.2-0.4c1.2,0.6,0,3,0.3,3.6c-0.7-2.4-2.1,0.8-2.8-2.4
							c-0.1,0.3-0.2,0.8,0.1,1.2c-0.4,0.1-0.7-0.1-0.7-0.8c-1,1.3-0.1,1.7-1.2,2.4c-0.2-0.3-0.1-0.6-0.2-1.1c-0.2,1-0.3,2.1-1.5,2.4
							c-0.1-0.2-0.4-0.4-0.1-0.6c-1.6,1.2-1.8,3.6-4,4.2c-0.4-1.8-0.9-0.1-1.9-1.2l-0.8,1l0.8,0.4c-0.9,0.5-1.1,1.9-2.1,2l0.3-0.9
							l-1.5,1.3l1.2-0.1c-0.5,1.2,1.1,1.5-0.3,1.9c0.2-0.3-0.9,0.5-1.8,0.1l0,0c-0.2,0.7-0.4,1.4-1.2,1.5c-0.4-0.3-0.7-1.5-1-1.7
							c0.2,1.3-1.9,1.6-1.8,3.1c0-0.4-0.4-1.1-0.5-1.2l0.2,1.1c-0.6,0-0.7-0.1-1-0.7c-1.4,0.6,1.4,1.4-0.5,1.6
							c0.1-0.1-0.1-0.2,0.1-0.5c-1.7,0.5-2.6,2.3-4.2,2.7c-1.2-1.1,1-1-0.1-1.9c-0.9,0.7-1.7,1.7-2.6,2.6c-0.9,0.9-1.7,1.7-2.8,2.1
							l0.4-0.1c0.8,2-2-0.1-2.5,1.3c0.2-0.3-0.3-1.2-0.2-1c-1.5,0.4-2.5,2-4.2,3.7l0-0.6c-1,0-2.2,0.9-3.2,1.1
							c0,0.6-0.5,0.8,0.1,1.3c-4.1-1.4-4.3,4.2-7.9,3.1c0.3-0.1,0.5-0.8,0.2-0.7l-1.8,1.5c0.6,0.7,0.5,0.4,1.3,0.8
							c0,0.6-0.4,1.3-0.9,1.5c0.6-1-0.7-1.3-1.3-1.6c0.2,0.2,0.2,0.6,0.4,0.8c-1.8-0.9,0.6,1.8-1.3,1.5l-0.1-0.5
							c-0.4,0.5-0.7,1.3-1.3,1.5c-0.7-0.8,0.4-0.7,0-1.5c-0.8,0.5-0.7,2.6-2,2c0.2-0.4,0.7-0.7,1-1.1c-1.4-0.7-1.3-0.4-2-0.3l0.1,0
							l-1.7,0.2l0.5,0.1c0.2,3-1.9,1.5-2.5,3.8c0.6-2.2-0.2-1-0.6-2.2c-0.5-0.1-1.2-0.2-1.2-0.6c-0.2,1.2-1.4-0.2-1.8,1.6
							c-0.2-0.3-0.7,0.3-1-0.7c-0.7,0.7,0.5,0.5,0.6,1c-0.8,1.9-3.8,0-5,2.5c-1.4,1.4-1.1,2.8-2.4,4.1c-0.8-0.3-0.1-1.5-0.1-1.5
							c-1.1-0.1-1.7,0.2-2.3,1c0-0.4-0.3-0.6-0.7-0.9c-0.6,0.4,0.1,1.5-0.9,1.3c0-0.5-0.1-1.2,0-1.7c-0.6,0.6-1.1,1.6-1.7,2.3
							c-0.5-0.5,0.1-1.1,0.2-1.7c-0.8,0.7-2,1.5-1.9,2.6l0.7,0.1c-0.3,0.2-0.5-0.8-0.4-1.1c0.4-1.1,1.2-0.1,1.4,0.2l-0.5,0.5
							c1.5,1.9,2.1-1.3,3.3-1.6l0.2,1.7l0.6-1.8c0.4,0.3,1,1.1,0.5,1.5c1.1,0.4,0.5-0.9,1.5-0.3c0.1,0.1,0.1,0.2,0.1,0.3l0.6-0.8
							c0,0.4,0.6,1,0,1c1.8,0.2,1.8-2.2,2.8-1.2l-0.1,0.1c1.7-1.4-0.3-1.2,0.6-3.2l2.2,2.3l-0.3-1.2c0.2-0.1,0.7-0.1,0.8,0.3
							c0.4-1.1-0.3-0.4-0.2-1.3c1.4,0.6,2.4-1.7,3.5,0c0-1-1.2-0.2-0.5-1.3c1.2,1.8,1-0.9,2.3-0.4c0.2,1.1-0.9,1,0.4,1.4
							c-0.2-1.9,1.9-0.5,2.5-1.1c-0.6-1.3,1.4-1.3,2.4-2.3c0.1,0.5,2.7-0.4,4.1-0.5l0.1,0.2c-0.4-1.4,0.9-1.8,1.6-2.5
							c0.4,0.8,0.4,1.2,0.1,1.8l0.8-0.4c0-0.5,0.1-0.9,0.6-1.3l0.3,1.1c1.1-0.6,1.6-2.2,3.3-2.3c-0.4-1-2.4-2-1.3-3.3
							c0.3,0.5,0.8,1.3,0.5,1.7c0.1-0.1,0.2-0.6,0.6-0.6l-0.2,1.1c0.8,0,0-0.9,0.5-1.1c0.4,0.7,0.6,0.3,0.8,0.9
							c-0.1,0.1-0.6-0.1-0.6,0.3c0.6-0.2,1.5-0.1,2,0.3c-0.3-0.4-0.5-0.9-0.1-1.3c1-0.6,0.8,0.6,1.6,0.7c0-0.6,1-0.5,0.4-1.5
							c0.3-0.2,0.6,0.3,0.9,0.5c0.3-0.8,2.5-1.5,1.3-2.3l-0.2,0c0,0,0-0.1,0.1-0.1c0,0,0,0,0,0l0,0c1.3-2,4-1.4,5.6-2.9l0.2,0.3
							c0.8-1,2.2-1.5,2.6-2.7c0.3-0.2,1.1,0.2,1.2,0.7c0.7-0.7,0.5-1.1,2-1.2c-0.5,1.1,0.6,0.4-0.6,0.9c1.2-0.3,1.8,0.1,2.3-1.5
							c0.1,1.1,1.4,0.6,1.8,0.1l-1.1-0.2c0.5-0.5,1-0.7,1.5-0.9l0.4,1.3c3,0.1,2.4-4.6,5.4-3.3c0.1-1.1-1.5,0.1-1.6-1.1
							c1.1-0.4,3.1,0.6,3.4,0.4c1.7-0.2,0.2-2.4,1.9-2.9c-0.4-0.3-1.3-1.3-0.5-2.3c1.1-0.5,2.2,0.9,1.8,1.6c-0.2,0.2-0.4,0.1-0.5,0
							c-0.2,0.3-0.5,0.8,0.1,1l-0.1-0.5c0.7,0.1,2-0.8,2.1,0.1c0.5-0.8-0.1-0.9-0.8-0.7c1.6-0.2,2-1.2,3.5-1.6
							c-0.3-0.1-0.8-0.4-0.6-0.6c2.2-0.7,0.3-1.3,1.4-2.3c1.1,0.1,0.7,1.6,1.6,0.3c1-0.1,0.9,0.9,0.8,1.5c0.6-1.5,2.5-0.9,3.2-1.2
							l-0.4,0.7c0.2-0.4,0.5-0.6,0.8-0.8l-0.9-0.6c0.4-0.1,0.8-0.3,1,0c0-0.8-1.2-1.1-0.9-2.3c0.7,0.1,1.1-1.4,2-0.5
							c-1.7,0.7,0.9,0.9-0.3,1.9c0.2-0.3,0.5-0.5,0.9-0.6c0.1,0.1,0.1,0.3,0,0.4c2-0.1-0.2-1.6,1.3-2.6c0.2,0.7,1.1,0.9,1.3,0.6
							c-0.6,0.4-1-0.8-0.7-1.6c1.2-0.2,0.8-1,1.3-1.3l-0.7,0.2c-0.2-0.7,0.3-1,0.8-1.6c0.4,0.4-0.4,0.7,0,0.8c0-1.5,2.4-0.1,2.9-1.5
							c0.7,0.1,0.8,1.1,1.4,1c0.6-1.5,1.8-0.1,2.5-1.6c-0.9-0.5-0.8-0.3-0.6-1.6l-1.5,2l0.4-2c-0.6,0.4-0.8,1.4-1.3,1.5
							c0.1-1.1,0.2-0.8-0.5-1.3c1.6,0.6,1.1-1.8,2.5-1.7l1.4,1.9c2-0.2,1.7-2.8,3.8-3.6l-0.8,0.1c-0.3-0.9,1-0.9,1.3-1.6
							c0.4,0.7,1,0.6,1.5,0.8c-0.4-0.4,1.3-1,0.5-2.3l1.4,0.2c1.7-0.8,0.2-3,1.7-3.9c0.1,1,1.1,0.9,0.6,2.1c0.5-0.3,0.9-0.6,0.6-1
							c0.6,0.2,0.6-1.8,1.5-1.6c0-0.4-0.5-1.1,0-1.5c0.2,0.1,0.2,0.3,0.2,0.3c-0.2-0.3,0.4-1-0.5-1.4c2.9,0.8,3.6-3.3,6.1-2.7
							c0.8-1,1.8-2.2,2.6-2.9c0.1,0.2,0.3,0.3,0,0.4c1.7-0.5-0.8-2.3,1.1-2.9c1.5,0.3-0.2,1.1,0.5,1.1c1.9,1.8,1.4-1.7,3.3-1.4
							l-0.1,0.3c1.3,0,1-2.2,2.2-3.1c0,0,0.1,0.2,0.3,0.3c-0.1-1.6,1-3.3,1.7-4.6c0.4,1-0.1,0.8,0.8,1.4c0.4-0.6-1.3-1.1-0.6-2.2
							c0.7,0.1,1.7-0.2,2.5,0.5l-0.8,0.9c1.4,0.6,1.1-1.1,1.7-1.4l0.4,0.5c1.2-1.4,0.1-2.6,1.6-3.9l-0.5-0.2c-0.3-1.9,1.3,0,1.2-1.6
							l1.3,0.9c0.2-0.8,0.7-2.9,1.3-4c0.3,1.3-0.3,2.8-0.4,4c0.5-0.5,1.6-1.8,1.3-2.6c-0.1,0.3-0.1,0.8-0.4,0.9
							c-0.3-1.5,0.1-2.7,1.1-3.7c2,2.3,3.1-2.1,5.5-1.3c0.9-2.6,3.7-3.4,5.6-5.7c-2.5-0.8,0.5-0.7-1.4-2.2c0.3-0.6,0.5-0.8,0.7-0.7
							l2.4-0.6c0.9,0.1,0,0.8,0.5,1.2c1.1-1,1.2,0.2,2.3-0.2c-0.8-0.4-0.6-1.2,0.2-1.7l-1.6,0.2c0.3-2.4,2.7-0.1,3.1-2.5l0.2,1
							c0.2-0.6,0.8-1.3,1.3-2.2c0.5-0.9,0.8-1.9,0.4-3c0.3,0,1,0.2,0.9,0.7c1.8-1.9,1.9-5.9,4.1-6.7l0.4,0.5
							c0.2-0.5-0.4-1.3,0.4-1.5c0.2,0.2,0.4,0.5,0.5,0.4c0-0.3-0.1-1.7,0.6-2l0.2,0.8c2.1-1.6,0.9-4.1,1.8-6.1c1.4,1,3.1-0.3,3.9-1
							l0.2,0.2c1.8-2.4,1.5-5,2.4-7.7c2.6-0.4,3.7-4.5,6-6.3c-0.5,0.2-1.1-0.8-1-1.3c0.6-0.4-0.1-2.1,1.2-1.2l-0.1,0.2
							c1.6,0.4,1.9-1,2.5-1.8l-1.8-1.2c4-0.9,2.4-6.7,5.5-6.7c-0.2-0.8,0.2-1.5,0-2.3l1,0.5c1.1-1.5,1.6-2.2,2.3-4.4l0.5,0.8
							c0.6-1.1-2.2-2.9-1.8-3.9l1.7,0.4c1-2,3.2-3.4,2.7-6c0.2,0.1,0.6,0.4,0.6,0.7c0.5-0.9,2.7-3.2,0.4-3.8c1.4,0.6,1.1-2,0.9-3.3
							l1,0.6c-1-1.5-1.3-1.6-1.2-3.1c0.3-0.3,0.9,0.1,0.5,0.4c0.9-0.8-0.7-1.2,0.4-2.2l0.5,0.7c0.5-1,0.1-1.1-0.5-2
							c-0.2-0.8,1-1.9,2-1.7c-0.5-0.4-1.1-1.2-0.6-1.7c0.4,0,0.5,0.4,0.6,0.5c1.4-1.5-0.3-3.1,1.2-3.9c0.4,0.1,0.6,0.1,0.7,0
							c-0.5,1.4-0.9,2.5-1,2.4c1,0.3,1.5-0.7,2.6,0.7c-0.4-1.2-1.5-3.3-0.6-4.3c0.1,0,0.2,0,0.4,0l0.1,0.2c0.2-0.2,0.2-0.5,0.1-0.8
							c0.3-0.3,0.5-0.5,0.6-0.8c0.9,0.1,0.9-1.2,1.1-1.7c-1.1-0.3-0.7-1-1.8-0.6c0.1-0.1,0.1,0.1,0,0.5c0,0.1,0,0.2,0,0.3
							c0,0-0.1,0-0.1-0.1c-0.1,0.4-0.2,0.9-0.4,1.4c-0.4-0.6-0.7-1.3,0.1-1.7c-0.6-0.5-1.2-1.1-1.5-1.4c1.8-0.3,3.1-1.6,4-1.5
							c-0.1-2,0.8-4.3-0.9-6c-0.1-0.6,0.7-0.4,1.1-0.5c0.1,0.3,0,0.7,0.2,0.9c-0.2-1.2,0.6-3-0.7-3.7c1-1.1,1.1,1.1,1.4-0.7l0.4,0.4
							c1.6-1.4,1-3.1,0.5-4.8c-0.5-1.7-0.9-3.3,1-4.9c-0.2,0.2-0.4,0.3-0.6,0.3c1.2-2,1.2-4.4,1.4-6.7c0.2-2.3,0.6-4.6,1.8-6.6
							c0.6-1.2-0.3-1.5-0.9-2.3l1.2-0.1l-1.2-1.5c-0.4-1,0.5-1.7,1.2-2.5c0.7-0.8,1.4-1.7,0.5-2.9l-0.8,0.2c0.2-0.8-0.3-2.7,0.7-2.5
							c-0.1-0.1-0.8-0.4-0.4-0.6l0.6,0l-0.9-2.2c0.6-1.6,2.5,0.4,2.8-1.9c-0.2-0.9-1.6-2.6-2.1-2.3c-0.1,0.4-0.5,0.9-1.1,0.9
							l-0.3-0.8c-1.8-0.2-3.7-0.9-5.2,0.9l1,1.4L277.7,3l0-1.1c-0.9,0.6-0.2,1,0.3,1.5c-0.5,0.1-0.8,0.2-1,0.5l1.7,1.4
							c-0.7,0.1-1.4-0.7-1.9,0.1c0.8,0.7,1.7-0.5,2.1,0.6c-0.9,0.6-1.6,0.3-0.9,1.1c-0.5,0.1-0.8-0.1-1-0.4c0.5,0.7,0.1,1.8,1.1,2.2
							c-1.1,0.6,0,2.3-1.7,2c0.4,0.3,1.2,1.3,1.2,1.9c-1.9-1.4-0.4,2.2-2.6,1.7c1.8,1.1,0.4,3,1.3,4.6c-0.1-0.1-0.4-0.3-0.3-0.4
							c-0.3,0.8-0.8,0.9-1.3,1.4c1.5,0.3,1.7,1.7,2.5,2.5c-1.7,0.7-1.7-0.9-3.2-0.8c1.3,0.2,0.9,1.9,2,1.8c-1.1,0.6-0.6,0.6-1.9,0.7
							c1.9,0.5,0.2,0.8,1.3,1.6c-1.2,0.9-1.9-0.1-1.5,1.3C273.2,27.6,272.7,26.5,272.7,26.5z M268.4,55.4
							C268.4,55.4,268.4,55.4,268.4,55.4c0-0.3,0.1-0.5,0.1-0.6C268.5,54.9,268.5,55.1,268.4,55.4z M267.7,57.7
							c0.1-0.3,0.3-0.6,0.4-1c0.4,0,0.7,0.3,0.6,0.5C268.5,57,268.1,57.5,267.7,57.7z M276.7,55.2c0,0.4-0.2,0.5-0.5,0.5
							c0-0.2,0.1-0.4,0.1-0.7c0,0-0.1-0.1-0.1-0.1C276.4,55,276.6,55.1,276.7,55.2z"/>
						<path id="XMLID_797_" class="st0" d="M275.6,54.1c0-0.1,0-0.1,0-0.2c-0.1,0-0.2,0.1-0.3,0.1c0.1,0.1,0.2,0.2,0.3,0.2
							C275.5,54.2,275.5,54.2,275.6,54.1z"/>
						<path id="XMLID_796_" class="st0" d="M124.6,218.1L124.6,218.1c0,0-0.1,0-0.1-0.1C124.6,218.1,124.6,218.1,124.6,218.1z"/>
						<polygon id="XMLID_795_" class="st0" points="252.1,87.9 252.3,88.1 252.2,87.7 						"/>
						<path id="XMLID_794_" class="st0" d="M110.6,221c-0.1-0.1-0.2-0.1-0.3-0.2C110.4,220.9,110.5,221,110.6,221z"/>
						<path id="XMLID_793_" class="st0" d="M105.2,223.4l-0.9,0C104.7,223.5,105,223.4,105.2,223.4z"/>
						<path id="XMLID_792_" class="st0" d="M100.9,224.9c0,0.2,0.1,0.3,0.1,0.5c0,0,0,0,0,0L100.9,224.9z"/>
						<path id="XMLID_791_" class="st0" d="M162.6,187.8c0,0,0.1-0.1,0.1-0.1C162.9,187.2,162.7,187.5,162.6,187.8z"/>
						<path id="XMLID_790_" class="st0" d="M146.1,201.8c0.1-0.3,0.2-0.6,0.3-0.8C146.1,201.1,145.8,201.3,146.1,201.8z"/>
						<path id="XMLID_789_" class="st0" d="M180.8,172.4C180.8,172.4,180.8,172.4,180.8,172.4c0,0,0.1,0,0.1-0.1L180.8,172.4z"/>
						<path id="XMLID_788_" class="st0" d="M147.3,200.5c-0.4,0-0.7,0.2-0.9,0.5C146.7,200.9,147.1,200.8,147.3,200.5z"/>
						<path id="XMLID_787_" class="st0" d="M82.7,232.4l-0.2,0c0,0.1,0,0.1,0,0.2L82.7,232.4z"/>
						<path id="XMLID_786_" class="st0" d="M82.5,232.7l-0.2,0.2C82.5,232.8,82.5,232.8,82.5,232.7z"/>
						<path id="XMLID_785_" class="st0" d="M82,233.3l0.4-0.5C82.2,232.9,82,233,82,233.3z"/>
						<path id="XMLID_784_" class="st0" d="M88.4,230.5l-0.1-0.4C88.3,230.2,88.4,230.4,88.4,230.5z"/>
						<path id="XMLID_783_" class="st0" d="M90,229.7c-0.4,0.1-1.3-0.3-1.8,0.1l0.1,0.3C88.3,229.5,89.9,230.5,90,229.7z"/>
						<path id="XMLID_782_" class="st0" d="M99.1,231.1l-1.5,0.3c0.4,0.3,1,0.7,0.4,1.1C100.3,232.9,97.2,231.8,99.1,231.1z"/>
						<path id="XMLID_781_" class="st0" d="M103.7,229.7c-0.7,0.5,0.3,0.6,0.3,0.8C104.4,229.9,104.5,229.7,103.7,229.7z"/>
						<path id="XMLID_780_" class="st0" d="M134.5,213.7l0.4,0.9C135.5,214.2,134.8,214.3,134.5,213.7z"/>
						<polygon id="XMLID_779_" class="st0" points="137.6,205.8 136.7,205.5 137,206.5 						"/>
						<polygon id="XMLID_778_" class="st0" points="144.7,210.1 144.5,210.3 145.3,209.5 						"/>
						<path id="XMLID_715_" class="st0" d="M192.2,175.7l-1-0.8C191.1,175.3,191.9,176.5,192.2,175.7z"/>
						<path id="XMLID_646_" class="st0" d="M210,157.7c0.6,0.3,1.4,0,1.3-0.7C210.9,157.3,210.1,157.3,210,157.7z"/>
						<polygon id="XMLID_645_" class="st0" points="257.8,98.6 257.9,99.2 258.1,98.2 						"/>
					</g>
				</g>
			</g>
		</g>
	</g>
	<g id="XMLID_423_">
		<g id="XMLID_621_">
			<g id="XMLID_625_">
				<g id="XMLID_626_">
					<g id="XMLID_627_">
						<path id="XMLID_874_" class="st0" d="M106,293.8c0.2-0.3,0.3-1.1,0-1l-0.5,1.2L106,293.8z"/>
						<path id="XMLID_873_" class="st0" d="M104.6,290.9c-0.5,0.5-1.1,1.6-1.2,2.8c0.6-1.2,0.6-0.6,1.3-2c0.3-0.1,0.4,0.5,0.3,1
							c0.2-0.3,0.4,0.4,0.7-0.4c-0.1-1.1-0.6-1.2-1.3-0.5C104.3,291.5,104.5,291.2,104.6,290.9z"/>
						<path id="XMLID_872_" class="st0" d="M76.9,282.5l0.1,0.2C77,282.6,77,282.6,76.9,282.5z"/>
						<path id="XMLID_871_" class="st0" d="M59.6,277.8c0.1,0,0.2-0.1,0.3-0.2C59.7,277.7,59.6,277.7,59.6,277.8z"/>
						<path id="XMLID_870_" class="st0" d="M57,275.7c0.1,0.1,0.1,0.1,0.2,0.1C57.1,275.7,57,275.7,57,275.7z"/>
						<path id="XMLID_869_" class="st0" d="M76.9,282.5l-0.4-0.5C76.4,282.4,76.7,282.4,76.9,282.5z"/>
						<path id="XMLID_868_" class="st0" d="M100,293.2c0.1,0,0.2-0.1,0.3-0.3c-0.1,0-0.2,0.1-0.3,0.1C100,293,100,293.1,100,293.2z"
							/>
						<path id="XMLID_867_" class="st0" d="M84.8,283.2l0.1,0c0.1-0.1,0.2-0.3,0.2-0.5L84.8,283.2z"/>
						<path id="XMLID_866_" class="st0" d="M90.8,284.4c-0.1-0.1-0.4,1-0.6,1.5c0.2-0.4,0.3-0.6,0.5-0.7
							C90.7,284.9,90.7,284.7,90.8,284.4z"/>
						<path id="XMLID_865_" class="st0" d="M99.7,288.4l0.2-0.1C99.8,288.3,99.7,288.4,99.7,288.4z"/>
						<path id="XMLID_864_" class="st0" d="M80.6,282c0-0.2,0-0.3,0-0.4C80.6,281.8,80.6,281.9,80.6,282z"/>
						<path id="XMLID_863_" class="st0" d="M55.8,189c0.1,0.1,0.1,0.1,0.2,0.1C55.9,189,55.8,189,55.8,189z"/>
						<path id="XMLID_862_" class="st0" d="M64.5,187l0,0.1c0.2,0.1,0.3,0.3,0.5,0.4L64.5,187z"/>
						<path id="XMLID_861_" class="st0" d="M51.8,273.1C51.8,273.1,51.8,273.1,51.8,273.1C52,273,51.9,273,51.8,273.1z"/>
						<path id="XMLID_860_" class="st0" d="M10.5,262.5c-0.5,0-0.8-0.1-1.1-0.3c-0.3-0.2-0.6-0.4-1.2-0.3c0.2,0,0.6,0.3,1.1,0.4
							C9.6,262.5,10.1,262.6,10.5,262.5z"/>
						<path id="XMLID_859_" class="st0" d="M99.9,293c-0.1,0-0.2,0-0.2,0C99.7,293,99.8,293,99.9,293z"/>
						<path id="XMLID_858_" class="st0" d="M8.1,261.9L8.1,261.9L8,262C8,262,8.1,261.9,8.1,261.9z"/>
						<path id="XMLID_857_" class="st0" d="M39.1,270.9c0,0.2,0,0.4,0,0.5C39.2,271.3,39.2,271.2,39.1,270.9z"/>
						<path id="XMLID_856_" class="st0" d="M48.1,274.6l-0.2-0.2C48,274.5,48.1,274.6,48.1,274.6z"/>
						<path id="XMLID_855_" class="st0" d="M33.9,271.3c-0.1-0.1-0.1-0.3-0.3-0.2c0,0.1,0,0.1,0,0.1
							C33.7,271.2,33.8,271.1,33.9,271.3z"/>
						<path id="XMLID_854_" class="st0" d="M28.9,270.2c0,0.1,0,0.2,0,0.2c0.1,0,0.1,0,0.2,0L28.9,270.2z"/>
						<path id="XMLID_853_" class="st0" d="M46.4,201.7c0.3,0.1,0.6,0.3,0.9,0.4C46.6,201.7,46.9,200.9,46.4,201.7z"/>
						<path id="XMLID_852_" class="st0" d="M100.1,292.5c-0.1,0.3-0.2,0.4-0.3,0.4c0.1,0,0.1,0,0.2,0
							C100.1,292.8,100.1,292.6,100.1,292.5z"/>
						<path id="XMLID_851_" class="st0" d="M31.7,280l-0.8-0.3C31.2,279.8,31.5,279.9,31.7,280z"/>
						<path id="XMLID_850_" class="st0" d="M23.3,230.8l0-0.2C23.3,230.6,23.2,230.7,23.3,230.8z"/>
						<path id="XMLID_849_" class="st0" d="M28.6,279.2c-0.1-0.4-0.2-0.7-0.3-0.9c-0.1,0.1-0.1,0.1-0.2,0.3L28.6,279.2z"/>
						<path id="XMLID_848_" class="st0" d="M47.3,202.1L47.3,202.1L47.3,202.1z"/>
						<path id="XMLID_843_" class="st0" d="M48.6,196.2c-0.5,0.6,0.9,1.2,1.5,1.8c-0.3,1-1.1-0.3-1.9-0.6c-0.1,0.7,0.7,1.9,0.4,2.2
							c-0.2-0.1-0.3-0.1-0.5-0.4c0.5,1.2-1.1,1.5-0.4,3c-0.1,0-0.2-0.1-0.3-0.2c0.7,0.4,1.3,0.8,1.7,1.2c-0.2,0.3,0.3,1.1-0.5,0.6
							c0.2-0.2-0.1-0.4-0.3-0.7l0.1,0.6c-1.3-0.6-0.1-0.7-0.9-1.3c-0.1,0.8,0.3,2.2-0.4,2.4c-1.1-0.8,0.4-1.3-1-1.5L47,203
							c-2.1-0.8,0.4-0.3-1.7-1.3c-1,0.6-0.2,1.4-1.2,2c0.4,0.7,0.9,0.6,1.4,1.3c0.1,2.1-3.5-1.2-2.8,0.9c0.5,0.8,1.8,2,0.6,2l-1-1.2
							c-0.8,0.8,1.3,1.9-0.2,2.1c-0.3-0.5,0.1-1-0.1-1c-1.4-0.2,0.4,1,0,1.4l-1.1-0.8c-0.6,1-0.6,2.6-1.2,3.8
							c-0.3-0.3-0.5-0.7-1-0.8c-0.5,1.7-2.3,2.6-3.9,3.3l0.5,1.2c-0.1,0.1-0.6-0.1-0.7-0.4c-0.7,0.2,0.6,0.5,0.7,1
							c-0.2,0.3-0.8-0.1-1-0.5c0.1,1.5-0.2,3.7-1.9,3.8l-0.1-0.4c-0.9,0.4,1.3,2.3-0.1,2.2l-0.1-0.3c-1.6,1.2-2.1,3.5-4.4,3.5
							c1.1,1.3-1.8,1,0,2.6c-1.6,0.1-1.7-0.4-3.3,0.3c-0.3,0.3,0.8,1.4,0.6,1.9l-1-0.8l0.6,1.3l-1.4-0.6l0,0.6
							c0.2-0.1,0.7,0,0.9,0.3c0,0.9-1.8,0.9-2.3,0.5l-0.3,2c-0.4-0.3-0.3-0.7-0.4-1.1c0.4,1.5-1.1-0.7-0.8,0.7
							c0.3,0.1,0.5,0.5,0.7,0.7c-0.8-0.1-1.5,0.6-1.7,1.4l-0.6-0.6c-1,0.9-1.4,2.4-2.3,3.5c0.6-0.2,1.7,0.9,1.6,1.3l-1.1-0.7
							c0.5,0.7,0.7,0,1.1,1c-0.5,0.3-1.4-0.6-1.5-1.1l-0.1,0.8c-0.3-0.2-0.4-0.5-0.8-0.8c0.5,0.7-1.7,0.1-0.9,1.3l-0.3-0.2
							c-0.9,1.1-1,1.9-1.7,2.9c0.9,0.7,0.4,0.9,0.9,1.8c-0.8,0.5-2.1,0.7-2.7,1.6c0,0.9,0.6,0.8,0.9,1.4c-0.8-0.6-1.4,0.3-1.7-0.6
							c-0.7,1.1-0.8,1.4-1.2,3.2c0.4,0.1,0.7,0.1,0.9,0.4c0,0.3-0.7,0.2-1.1-0.1l0-0.1c0,1.2-1.2,1.5-2.3,1.9
							c-0.6,0.2-1.1,0.4-1.5,0.6c-0.4,0.3-0.6,0.8-0.4,1.4l0-0.1c0,0,0,0.5-0.1,1c0,0.5,0,1,0,1c-0.6,0.6-0.4-0.8-1.2-0.7
							c0.2,1.3-0.3,1.9-0.7,2.6c-0.2,0.3-0.5,0.6-0.7,1.1c-0.2,0.5-0.3,1-0.2,1.6c-1.7,0.4-2,2.3-1.7,4c0.3,1.7,1.2,3.2,1,4.7
							l0.6-0.5c0.9,0.2,0,0.8,0.2,1.4c0.4-0.4,0.2-0.9,0.7-0.8c0.9,0.9,1.8,1.8,2.9,2.6c0.5,0.4,1.1,0.8,1.6,1.2l1.6,1
							c1.8,1.1,3.5,2.1,4.8,2.7c1.1,0.4,1.4-3.4,2.5-1.5l-0.7,1.2c2.6-1,4.5,1.1,7,0.3c-0.2,0.3-0.3,0.7-0.5,0.6
							c0.2,1,1.7,0.4,1.9-0.3c0.3,0.2-0.1,0.7,0,1.1c0.3,0.7,1.4-0.9,1.5,0.1c0,0.2-0.2,0.3-0.3,0.3c0.4-0.4,1.4,0.4,1.3-0.7
							c0.7,0.7,1.7-0.1,2.2,0.7c0.7-1.1,1.3,0.9,1.8-0.8c-0.5,1.8,1.1,1.7,1.8,1c-0.3,0.5,0.3,0.7,0,1.3c0.6,0.1,1.2-0.1,1.3-1
							c0.6,2.4,2.6-1.2,2.6,1.6c2-0.6,3.7-0.8,5.4-0.9c-0.5,1.7-1.8-0.2-2.1,1.6c1.7-0.4,2.9-1.7,4.2-0.9c0.3,0.3-0.4,0.7-0.6,1
							c1.7-0.4,2.8,0.8,4.4,0.2c0,0.2-0.2,0.3-0.4,0.4c0.3,0,0.6,0.4,0.7-0.4l-0.3,0.2c-0.2-1.3,1.6-2.2,1.8-2.8
							c-1,2.2,1.2,0.9-0.2,3.6c0.2-0.1,0.5-0.4,0.6-1c0.2,0.2,0.2,0.5-0.2,1.1c1-0.2,0.9-1.1,1.7-0.9c-0.1,0.4-0.3,0.5-0.5,0.9
							c0.6-0.7,1.2-1.3,1.8-0.8c-0.1,0.2-0.1,0.5-0.3,0.5c1.3,0.2,2.6-1.5,3.7-0.5c-0.8,1.6,0.3,0.7,0.1,2.1l0.8-0.3l-0.1-0.8
							c0.6,0.2,1.4-0.8,1.9-0.2l-0.6,0.5l1.3,0l-0.6-0.7c0.8-0.6,0.3-1.9,1.1-1.3c-0.2,0.1,0.6,0.2,0.8,1.1l0,0
							c0.4-0.4,0.9-0.8,1.2-0.3c0,0.5-0.5,1.6-0.5,1.9c0.6-1.1,1.6,0,2.3-1.2c-0.2,0.3-0.4,1-0.4,1.2l0.5-0.9c0.2,0.4,0.2,0.5,0,1.1
							c0.8,0.4,0.1-1.9,1-0.9c-0.1,0.1-0.1,0.2-0.3,0.3c1,0.7,2.2-0.2,3,0.5c0,1.5-0.9,0.2-0.9,1.5c1.5,0.1,3.3-1.1,4.6-0.4
							l-0.2-0.2c0.7-2,0.8,1.3,1.7,0.4c-0.2,0.1-0.5,1.1-0.4,0.9c0.9,0.5,2-0.1,3.6-0.4l-0.3,0.5c0.4,0.6,1.4,0.6,1.9,1
							c0.3-0.5,0.6-0.3,0.6-1.1c1.1,3.4,3.8-0.8,4.9,2.1c-0.2,0-0.6,0.4-0.4,0.4l1.5-0.2c0.1-0.9-0.1-0.6-0.2-1.4
							c0.3-0.5,0.8-0.8,1.1-0.7c-0.8,0.5-0.3,1.4-0.2,2c0-0.3,0.2-0.6,0.2-0.9c0.4,1.8,0.5-1.8,1.3-0.5l-0.2,0.5
							c0.4-0.2,0.9-0.7,1.3-0.5c-0.1,1.1-0.5,0.4-0.7,1.2c0.6,0.1,1.5-1.7,1.8-0.6c-0.3,0.2-0.6,0.2-0.9,0.4
							c0.3,1.3,0.4,1.1,0.8,1.3l0,0l0.8,0.8l-0.2-0.4c1.3-2.6,1.5-0.2,2.9-1.7c-1.3,1.5-0.4,0.9-0.7,2.1c0.2,0.4,0.4,0.8,0.3,1.1
							c0.7-0.9,0.6,0.9,1.5-0.3c-0.1,0.4,0.5,0.1,0.1,1.1c0.6-0.2,0-0.7,0.2-1.2c1.2-1.1,1.7,2.1,3.4,0.6c1.3-0.5,1.8-1.7,2.9-2.1
							c0.2,0.7-0.6,1.3-0.6,1.3c0.4,0.7,0.9,0.7,1.5,0.4c-0.2,0.3-0.1,0.6-0.1,1.1c0.4,0,0.6-1.3,1-0.6c-0.2,0.4-0.5,1.1-0.8,1.4
							c0.6-0.2,1.2-0.8,1.8-1.1c0,0.7-0.5,0.9-0.8,1.3c0.6-0.2,1.6-0.3,2.1-1.3l-0.3-0.5c0.2,0-0.1,0.9-0.3,1.1
							c-0.7,0.7-0.6-0.5-0.6-0.9l0.4-0.2c0.1-2.3-1.6,0-2.3-0.3l0.7-1.6l-1.1,1.2c-0.1-0.5,0-1.4,0.5-1.5c-0.3-0.9-0.6,0.5-0.9-0.5
							c0-0.2,0-0.2,0.1-0.3l-0.6,0.4c0.2-0.3,0.2-1.2,0.4-0.9c-0.7-1.1-1.8,0.9-1.8-0.4l0.1-0.1c-1.4,0.3-0.4,1.2-1.7,2.3l0-3.1
							l-0.4,1.2c-0.1-0.1-0.4-0.2-0.2-0.7c-0.7,0.7,0,0.5-0.5,1.2c-0.4-1.2-1.9,0.1-1.6-1.8c-0.4,0.9,0.5,0.8-0.4,1.3
							c0.3-2.1-0.9,0.2-1.2-0.9c0.4-1,0.8-0.3,0.5-1.4c-0.8,1.7-1-0.6-1.6-0.4c-0.3,1.4-1.2,0.3-2.1,0.6c0.2-0.5-1.4-1.1-2-1.8
							l0.1-0.2c-0.5,1.4-1.2,0.9-1.8,1.1c0.2-0.9,0.4-1.2,0.8-1.5l-0.5-0.1c-0.2,0.4-0.5,0.6-0.8,0.7l0.4-1c-0.7-0.1-1.7,0.9-2.5,0
							c-0.3,1,0.1,2.9-1,3.4c0.1-0.5,0.3-1.5,0.6-1.6c-0.1,0.1-0.4,0.4-0.5,0.1l0.6-0.8c-0.3-0.5-0.4,0.7-0.7,0.5
							c0.2-0.8-0.1-0.6,0.1-1.2c0.1-0.1,0.2,0.4,0.4,0.1c-0.4-0.2-0.7-0.8-0.7-1.4c-0.1,0.4-0.2,1-0.5,1.1c-0.7-0.1,0-1-0.4-1.5
							c-0.3,0.5-0.6-0.2-0.9,1c-0.2-0.1-0.1-0.6-0.1-0.9c-0.5,0.4-1.8-0.3-1.6,1.1l0.1,0.1c0,0,0,0-0.1,0l0,0l0,0
							c-1.5,0.9-2.4-1.2-3.7-1l0.1-0.4c-0.8,0.3-1.7-0.1-2.4,0.6c-0.2,0-0.3-0.8-0.2-1.3c-0.6,0.2-0.8,0.6-1.4-0.2
							c0.7-0.5-0.1-0.6,0.7-0.4c-0.6-0.5-0.7-1.2-1.7-0.3c0.5-0.9-0.3-1.4-0.7-1.1l0.3,0.8c-0.4,0.1-0.7-0.1-1.1-0.3l0.5-1.3
							c-1.1-1.9-3.3,2.1-3.8-0.8c-0.6,0.8,0.7,0.8,0.1,1.8c-0.6-0.3-0.9-2.4-1.1-2.4c-0.8-0.9-1.3,1.7-2.2,1c0,0.5-0.1,1.8-1,2
							c-0.6-0.3-0.4-2.1,0.1-2.4c0.2,0,0.2,0.2,0.2,0.3c0.3-0.1,0.6-0.3,0.4-0.8l-0.2,0.4c-0.2-0.5-1.2-0.7-0.8-1.4
							c-0.6,0.3-0.4,0.7-0.1,1c-0.7-0.9-1.4-0.3-2.1-1c0.1,0.3,0.1,0.9,0,0.8c-1.2-0.9-0.8,0.7-1.7,0.7c-0.3-0.8,0.6-1.6-0.5-1.3
							c-0.4-0.6,0.2-1.3,0.5-1.6c-1,0.7-1.4-0.9-1.8-1.2l0.5-0.3c-0.3,0.2-0.5,0.1-0.7,0.1l0,1c-0.2-0.2-0.4-0.3-0.3-0.7
							c-0.4,0.5-0.2,1.6-0.9,2.3c-0.2-0.5-1.1,0.3-1-1c1,0.7,0.2-1.3,1.1-1.3c-0.2,0.1-0.4,0.1-0.6-0.2c0-0.1,0.1-0.2,0.2-0.3
							c-0.8-1.3-0.8,1.3-1.8,1c0.3-0.7,0.1-1.4-0.2-1.3c0.4,0.1-0.1,1.2-0.6,1.6c-0.6-0.7-0.8,0.2-1.2,0.1l0.3,0.3
							c-0.3,0.7-0.6,0.5-1.1,0.6c0.1-0.5,0.5-0.3,0.4-0.5c-0.8,1.1-0.9-1.5-1.8-0.9c-0.2-0.5,0.3-1.3,0-1.7c-1,0.7-0.7-1.1-1.7-0.6
							c0,1,0.1,0.8-0.7,1.5l1.6-0.3l-1.2,1.1c0.4,0.1,1-0.4,1.2-0.2c-0.6,0.7-0.5,0.4-0.5,1.3c-0.3-1.5-1.3,0.6-1.8-0.5l0.5-2.3
							c-0.8-1.3-2.1,0.8-3.2-0.1l0.3,0.5c-0.4,0.9-0.8-0.1-1.3,0.2c0.2-0.8,0-1.1-0.1-1.6c-0.1,0.6-0.9-0.3-1.4,1.2l-0.4-1.1
							c-1-0.7-1.7,1.9-2.7,1.4c0.5-0.8,0.2-1.4,1-1.9c-0.3-0.1-0.6-0.3-0.7,0.2c-0.1-0.5-1.2,0.8-1.3,0c-0.2,0.3-0.5,1.1-0.8,1
							c0-0.2,0.1-0.4,0.1-0.4c-0.1,0.4-0.7,0.4-0.6,1.3c-0.5-2.6-3-0.5-3.4-2.8c-0.8,0.1-1.8,0.1-2.4,0c0.1-0.2,0.1-0.4,0.2-0.3
							c-0.8-0.9-1.1,2.1-1.9,1c-0.3-1.4,0.7-0.5,0.5-1.1c0.4-2.6-1.4,0.1-1.7-1.6l0.2-0.1c-0.3-1-1.5,0.7-2.4,0.3
							c0,0,0.1-0.2,0.1-0.4c-0.9,1.2-2.1,1.3-3.1,1.5c0.5-0.9,0.5-0.4,0.6-1.5c-0.4,0.1-0.3,1.6-1.1,1.8c-0.1-0.6-0.6-1.2-0.4-2.3
							l0.7,0.1c-0.1-1.5-0.9-0.2-1.3-0.5l0.2-0.6c-1.2-0.1-1.5,1.5-2.7,1.1l0,0.5c-1,1.4-0.3-1-1.2,0l0.2-1.6
							c-0.5,0.3-1.7,1.1-2.5,1.1c0.8-1,1.7-1.3,2.4-1.9c-0.4-0.1-1.2-0.2-1.6,0.4c0.2-0.1,0.5-0.4,0.5-0.1c-0.8,1.1-1.7,1.4-2.3,1.1
							c0.8-1.3,0.6-1.6,0.4-1.9c-0.2-0.3-0.5-0.6,0.4-1.4c-0.7,0.2-0.7-0.3-0.6-0.6c0.2-0.4,0.5-0.6,0.5-0.8c-2.5,0.1,0-0.2-2.5-0.5
							c-0.1-0.3,0-0.4,0.1-0.4c0,0,0.4-0.1,0.8-0.2c0.4,0,0.8,0,0.8,0c0.4,0.1,0.5,0.2,0.5,0.3c0.1,0.1,0.2,0.2,0.4,0.3
							c0.3-0.3,1,0.3,1.7,0.3c-0.8-0.3-1-0.7-0.6-0.9c0,0-0.3,0-0.6-0.1c-0.3,0-0.6,0-0.6,0c-0.4-0.7,0.2-0.7,0.8-0.6
							c0.5,0.1,1.1,0.2,0.8-0.6l0.5,0.7c-0.1-0.7,1.1-1.5,0-3.3c0.3,0.1,0.9,0.4,0.9,0.7c1.2-1,0.6-4,2.3-4.2l0.4,0.5
							c0-0.3-0.6-1.1,0.1-1c0.2,0.2,0.4,0.5,0.5,0.4c-0.1-0.3-0.3-1.3,0.2-1.4l0.3,0.7c1.6-0.7,0.2-2.9,0.7-4.1
							c1.4,1.1,2.6,0.5,3.2,0.2l0.2,0.2c1.3-1.3,0.8-3.3,1.2-5c2.1,0.4,2.8-2.2,4.7-2.9c-0.4,0-1-0.9-1-1.2c0.5-0.1-0.3-1.6,0.9-0.5
							l-0.1,0.1c1.4,0.8,1.6-0.1,2-0.6l-1.6-1.4c3.4,0.6,1.8-4,4.5-3c-0.2-0.6,0.1-1,0-1.6l0.9,0.7c0.9-0.7,1.4-1,2-2.2l0.5,0.7
							c0.5-0.5-2-2.8-1.6-3.4l1.5,0.9c0.8-1.1,2.8-1.2,2.4-3.2c0.2,0.2,0.5,0.5,0.5,0.7c0.4-0.5,2.4-1.2,0.4-2.4c1.2,0.9,1-1,0.9-2
							l0.8,0.8c-0.7-1.4-1-1.6-0.8-2.5c0.2-0.1,0.8,0.4,0.4,0.4c0.9-0.2-0.5-1.1,0.5-1.3l0.4,0.7c0.5-0.5,0.2-0.7-0.3-1.5
							c-0.1-0.6,1-0.8,1.9-0.3c-0.4-0.5-0.8-1.3-0.4-1.4c0.3,0.2,0.4,0.5,0.5,0.6c1.3-0.4,0-2.1,1.4-2.1c0.3,0.2,0.5,0.3,0.6,0.3
							c-0.6,0.7-1.1,1.2-1.1,1.1c0.8,0.6,1.4,0.2,2.1,1.5c-0.2-0.9-0.9-2.8-0.1-3c0.1,0,0.2,0.1,0.3,0.1l0,0.1
							c0.2-0.1,0.2-0.2,0.2-0.5c0.3-0.1,0.5-0.1,0.6-0.3c0.7,0.5,0.9-0.4,1.1-0.6c-0.9-0.7-0.5-0.9-1.5-1.2c0.1,0,0.1,0.1-0.1,0.4
							c0,0.1,0,0.1,0,0.2c0,0,0-0.1-0.1-0.1c-0.1,0.2-0.3,0.5-0.5,0.8c-0.3-0.6-0.5-1.1,0.3-1c-0.4-0.6-0.9-1.2-1.1-1.5
							c1.5,0.6,2.8,0.4,3.6,0.9c0.2-1.3,1.3-2.3,0.1-4.2c0-0.4,0.7,0.1,1,0.2c0.1,0.3-0.1,0.4,0.1,0.7c0-0.8,1-1.6,0-2.6
							c1-0.2,0.8,1.2,1.3,0.2l0.3,0.4c3.2-0.2-0.7-5.1,3.1-5.1c-0.2,0-0.4,0-0.6-0.1c2.8-1.3,2.5-5.2,5.9-6c0.8-0.3,0.1-1-0.1-1.8
							l1,0.6l-0.6-1.5c-0.1-1.5,3.5,0.3,2.9-2l-0.8-0.4c0.4-0.3,0.6-1.6,1.3-0.9c-0.1-0.1-0.6-0.7-0.1-0.6l0.5,0.4l-0.1-1.7
							c1-0.5,1.9,1.7,2.9,0.6c0.1-0.6-0.5-2.3-0.9-2.4c-0.2,0.1-0.7,0.2-1.2-0.2l0-0.6c-1.4-1.2-2.7-2.7-4.4-2.6l0.4,1.4l-0.9-0.4
							L60,185c-0.9-0.2-0.5,0.4-0.3,1c-0.4-0.2-0.8-0.4-1-0.3l0.9,1.8c-0.6-0.4-0.9-1.2-1.6-1c0.4,0.8,1.5,0.7,1.5,1.6
							c-0.9-0.2-1.4-0.7-1.1,0.1c-0.4-0.2-0.6-0.5-0.6-0.8c0.2,0.7-0.5,1,0.1,1.8c-1.1-0.3-0.7,1.3-2,0.1c0.2,0.4,0.6,1.4,0.4,1.8
							c-1.2-1.9-1,1-2.6-0.5c1.2,1.6-0.5,2-0.3,3.4c-0.1-0.1-0.3-0.4-0.1-0.4c-0.4,0.3-1,0.1-1.5,0.1c1.2,1,1,1.9,1.4,2.8
							c-1.6-0.4-1.2-1.4-2.5-2.2c1,0.8,0.3,1.7,1.3,2.1c-1-0.2-0.6,0-1.8-0.6c1.5,1.3,0,0.6,0.7,1.6c-1.2-0.1-1.5-1-1.6,0
							C48.7,197.2,48.6,196.2,48.6,196.2z M39.8,212.7C39.8,212.6,39.8,212.6,39.8,212.7c0.1-0.2,0.1-0.3,0.2-0.3
							C40,212.4,39.9,212.5,39.8,212.7z M38.9,213.9c0.2-0.1,0.3-0.3,0.5-0.5c0.3,0.2,0.6,0.5,0.5,0.6
							C39.7,213.7,39.3,213.9,38.9,213.9z M47,216.2c0,0.3-0.3,0.2-0.5,0.1c0.1-0.1,0.1-0.2,0.2-0.4c0,0-0.1-0.1-0.1-0.1
							C46.8,215.9,46.9,216.1,47,216.2z"/>
						<path id="XMLID_842_" class="st0" d="M46.1,214.9c0,0,0-0.1,0-0.1c-0.1,0-0.2,0-0.3,0c0.1,0.1,0.2,0.2,0.2,0.3
							C46.1,215,46.1,215,46.1,214.9z"/>
						<path id="XMLID_841_" class="st0" d="M77.1,282.7L77.1,282.7c0,0,0,0.1,0,0.1C77.1,282.8,77.1,282.8,77.1,282.7z"/>
						<polygon id="XMLID_840_" class="st0" points="23.9,229.2 24.2,229.3 24.1,229.1 						"/>
						<path id="XMLID_839_" class="st0" d="M84.5,288.4c0,0.1,0,0.2,0,0.3C84.5,288.6,84.5,288.5,84.5,288.4z"/>
						<path id="XMLID_838_" class="st0" d="M88,289.4l0.4,0.5C88.2,289.7,88.1,289.5,88,289.4z"/>
						<path id="XMLID_837_" class="st0" d="M90.6,290.6c0.1-0.2,0.1-0.3,0.2-0.5c0,0,0,0,0,0L90.6,290.6z"/>
						<path id="XMLID_836_" class="st0" d="M46.6,282c0,0-0.1,0-0.1,0C46.2,282.2,46.4,282.1,46.6,282z"/>
						<path id="XMLID_835_" class="st0" d="M60.2,282.4c-0.2,0.2-0.4,0.3-0.5,0.4C59.9,282.9,60.1,283,60.2,282.4z"/>
						<path id="XMLID_834_" class="st0" d="M31.8,280C31.8,280,31.8,280,31.8,280C31.8,280,31.8,280,31.8,280L31.8,280z"/>
						<path id="XMLID_833_" class="st0" d="M59.1,282.6c0.2,0.3,0.4,0.3,0.6,0.2C59.5,282.7,59.3,282.5,59.1,282.6z"/>
						<path id="XMLID_832_" class="st0" d="M102.4,293.8l0.1,0.1c0-0.1,0-0.1,0.1-0.2L102.4,293.8z"/>
						<path id="XMLID_831_" class="st0" d="M102.6,293.7l0.2-0.1C102.7,293.6,102.6,293.6,102.6,293.7z"/>
						<path id="XMLID_830_" class="st0" d="M103.1,293.4l-0.4,0.2C102.9,293.6,103,293.7,103.1,293.4z"/>
						<path id="XMLID_637_" class="st0" d="M98.9,292.5l-0.1,0.4C98.8,292.8,98.8,292.7,98.9,292.5z"/>
						<path id="XMLID_636_" class="st0" d="M97.8,292.3c0.2,0.2,0.5,1,0.9,0.8l0.1-0.3C98.5,293.4,98.2,291.7,97.8,292.3z"/>
						<path id="XMLID_635_" class="st0" d="M94.3,286.4l0.9,0.5c-0.1-0.5-0.1-1.1,0.3-1.1C94.5,284.3,95.4,286.8,94.3,286.4z"/>
						<path id="XMLID_634_" class="st0" d="M91.5,285.1c0.5-0.1,0.1-0.6,0.2-0.9C91.3,284.6,91.2,284.7,91.5,285.1z"/>
						<path id="XMLID_633_" class="st0" d="M70.8,280.4l0.3-1C70.6,279.5,71,279.8,70.8,280.4z"/>
						<polygon id="XMLID_632_" class="st0" points="65.6,284.6 65.9,285.4 66.3,284.5 						"/>
						<polygon id="XMLID_631_" class="st0" points="64.9,277 65.1,276.9 64.4,277.1 						"/>
						<path id="XMLID_630_" class="st0" d="M30,269.4l-0.2,1.3C30.1,270.5,30.5,269.2,30,269.4z"/>
						<path id="XMLID_629_" class="st0" d="M14.6,267.3c0-0.7-0.4-1.1-0.7-0.6C14.2,266.8,14.4,267.4,14.6,267.3z"/>
						<polygon id="XMLID_628_" class="st0" points="29.3,238.7 29.4,239.2 29.5,238.5 						"/>
					</g>
				</g>
			</g>
		</g>
	</g>
</g>
</svg>
