<?xml version="1.0" encoding="utf-8"?>
<!-- Generator: Adobe Illustrator 19.0.0, SVG Export Plug-In . SVG Version: 6.00 Build 0)  -->
<svg version="1.1" id="Capa_1" xmlns="http://www.w3.org/2000/svg" xmlns:xlink="http://www.w3.org/1999/xlink" x="0px" y="0px"
	 viewBox="0 0 407.4 174" style="enable-background:new 0 0 407.4 174;" xml:space="preserve">
<style type="text/css">
	.st0{fill:#FFF9F2;}
</style>
<g id="XMLID_432_">
	<g id="XMLID_420_">
		<g id="XMLID_716_">
			<g id="XMLID_720_">
				<g id="XMLID_721_">
					<g id="XMLID_722_">
						<path id="XMLID_777_" class="st0" d="M326,129.7c0.1-0.4-0.3-1.1-0.8-0.8l0.1,1.4L326,129.7z"/>
						<path id="XMLID_776_" class="st0" d="M321.7,128.5c-0.4,0.8-0.8,2.1,0,3.1c0.2-1.4,0.5-1,0.7-2.6c0.5-0.3,1,0.1,1.1,0.6
							c0.1-0.4,0.9,0,0.9-0.9c-1-0.7-1.9-0.5-2.5,0.6C321.6,129.1,321.7,128.7,321.7,128.5z"/>
						<path id="XMLID_775_" class="st0" d="M269.4,138.1l0.4,0.1C269.7,138.1,269.5,138.1,269.4,138.1z"/>
						<path id="XMLID_774_" class="st0" d="M236.6,139.2c0.2,0,0.4-0.2,0.4-0.3C236.8,139,236.6,139.1,236.6,139.2z"/>
						<path id="XMLID_773_" class="st0" d="M231.1,137.7c0.1,0,0.2,0.1,0.3,0.1C231.3,137.6,231.2,137.6,231.1,137.7z"/>
						<path id="XMLID_772_" class="st0" d="M269.4,138.1l-0.9-0.3C268.5,138.2,269,138,269.4,138.1z"/>
						<path id="XMLID_771_" class="st0" d="M315.6,133.8c0.2-0.1,0.3-0.3,0.4-0.5c-0.1,0.1-0.3,0.2-0.4,0.3
							C315.6,133.7,315.6,133.7,315.6,133.8z"/>
						<path id="XMLID_770_" class="st0" d="M283.5,134.9l0.3,0c0.1-0.2,0.1-0.4,0.1-0.6L283.5,134.9z"/>
						<path id="XMLID_769_" class="st0" d="M294.3,132.6c-0.3,0-0.1,1.1-0.1,1.6c0-0.5,0.2-0.7,0.4-0.9
							C294.6,133.1,294.5,132.9,294.3,132.6z"/>
						<path id="XMLID_768_" class="st0" d="M311.9,130.2l0.3-0.2C312.1,130,311.9,130.1,311.9,130.2z"/>
						<path id="XMLID_767_" class="st0" d="M275.7,135.9c0-0.2-0.1-0.3-0.2-0.4C275.5,135.6,275.6,135.8,275.7,135.9z"/>
						<path id="XMLID_766_" class="st0" d="M5.2,14.9c0.1,0,0.1-0.1,0.2-0.1C5.3,14.8,5.2,14.8,5.2,14.9z"/>
						<path id="XMLID_765_" class="st0" d="M3.7,0.8l0.1,0.1C4,0.8,4.2,0.8,4.4,0.7L3.7,0.8z"/>
						<path id="XMLID_764_" class="st0" d="M221,135.8C221,135.8,221,135.8,221,135.8C221.3,135.7,221.2,135.7,221,135.8z"/>
						<path id="XMLID_763_" class="st0" d="M131,114.5c0.5,1.4-2.1,0.4-1.1,2.1C130,116.1,131.9,115.6,131,114.5z"/>
						<path id="XMLID_762_" class="st0" d="M315.3,133.8c-0.1,0.1-0.3,0.1-0.4,0.2C315,133.9,315.2,133.9,315.3,133.8z"/>
						<path id="XMLID_761_" class="st0" d="M129.9,116.6L129.9,116.6l0.1,0.2C130,116.7,129.9,116.7,129.9,116.6z"/>
						<path id="XMLID_760_" class="st0" d="M197.7,134c0,0.2,0.1,0.4,0.2,0.5C197.9,134.4,197.9,134.2,197.7,134z"/>
						<path id="XMLID_759_" class="st0" d="M214.9,137.6l-0.4-0.2C214.6,137.5,214.8,137.5,214.9,137.6z"/>
						<path id="XMLID_758_" class="st0" d="M188.5,134c-0.2-0.1-0.3-0.3-0.6-0.2c0,0.1,0,0.1,0.1,0.2
							C188.1,133.8,188.3,133.8,188.5,134z"/>
						<path id="XMLID_757_" class="st0" d="M179.3,132c0,0.1,0.1,0.2,0.1,0.3c0.1,0,0.2,0,0.3,0L179.3,132z"/>
						<path id="XMLID_756_" class="st0" d="M22.3,39.2c0.1-0.4,0.3-0.7,0.5-1C22.3,38.8,21.2,37.8,22.3,39.2z"/>
						<path id="XMLID_755_" class="st0" d="M315.4,133.2c0,0.3,0,0.4-0.1,0.6c0.1,0,0.2-0.1,0.3-0.2
							C315.5,133.5,315.5,133.3,315.4,133.2z"/>
						<path id="XMLID_754_" class="st0" d="M186.5,142.6l-1.5-0.4C185.4,142.4,186,142.5,186.5,142.6z"/>
						<path id="XMLID_753_" class="st0" d="M71.3,88.8l-0.4-0.1C71,88.8,71.1,88.9,71.3,88.8z"/>
						<path id="XMLID_752_" class="st0" d="M180.5,141.4c-0.2-0.4-0.4-0.7-0.7-0.9c-0.1,0.1-0.2,0.1-0.2,0.2L180.5,141.4z"/>
						<path id="XMLID_751_" class="st0" d="M22.9,38.2C22.8,38.2,22.8,38.2,22.9,38.2C22.8,38.2,22.8,38.2,22.9,38.2z"/>
						<path id="XMLID_746_" class="st0" d="M14.7,31.5c0.8,1.2,1.6-0.3,2.5-0.5c1.3,1.2-0.4,1.3-0.7,2.2c0.9,0.7,2.5,0.6,3,1.3
							c-0.2,0.2-0.1,0.4-0.5,0.4c1.6,0.2,2.1,2.7,4.1,2.9c0,0.2-0.1,0.3-0.2,0.4c0.5-0.6,1-1.1,1.5-1.4c0.4,0.5,1.5,0.4,0.9,1.2
							c-0.2-0.3-0.5-0.1-0.9-0.1l0.7,0.3c-0.7,1.3-0.9-0.5-1.8,0.2c1.2,0.8,3,1.3,3.3,2.4c-0.9,1-1.8-1.6-1.9,0.2l-0.5-1.6
							c-1,2.3-0.5-0.9-1.6,1.4c1,1.9,1.9,1.5,3,3.4c0.9-0.1,0.8-0.8,1.7-0.9c2.9,1.4-1.2,4,1.6,4.5c1.1-0.1,2.5-1.1,2.8,0.7
							l-1.5,0.6c1.2,1.7,2.4-0.5,3,1.8c-0.7,0.1-1.4-0.9-1.3-0.5c0,1.9,1.3,0.2,2,1l-0.9,1.1c1.6,1.5,4,2.6,5.7,4.2
							c-0.4,0.2-1,0.2-0.9,0.8c1.3,0.9,2.3,2.1,3.2,3.5c0.9,1.3,1.8,2.7,2.5,4.1l1.6,0c0.2,0.2,0,0.7-0.4,0.7
							c0.5,1.1,0.6-0.5,1.3-0.4c0.5,0.4,0.1,1.1-0.4,1c2.1,0.7,5.5,2.6,6.2,4.9l-0.5,0c0.9,1.5,3-0.5,3.4,1.4l-0.4,0
							c1.1,1.4,2.6,2.6,3.9,3.8c1.3,1.2,2.5,2.4,2.9,4c1.5-0.9,2.2,2.9,3.9,1.2c0.8,2.2,0.1,2.2,1.8,4.6c0.5,0.6,1.8-0.4,2.7,0
							l-0.8,1l1.8-0.2L70,88.4l0.9,0.3c-0.2-0.3-0.3-0.9,0-1.1c1.4,0.4,2.1,2.8,1.8,3.3l3.2,1.2c-0.4,0.4-0.9,0.1-1.4,0.1
							c2.1,0.1-0.5,1.2,1.4,1.3c0-0.4,0.5-0.5,0.7-0.7c0.2,1.1,1.7,2.1,3,2.7L79,96c1.9,1.6,4.5,2.7,6.7,4.3c-0.6-0.9,0.4-2,1.2-1.6
							l-0.5,1.3c0.9-0.4-0.4-0.9,1-1.1c0.8,0.7-0.3,1.6-1,1.6l1.3,0.3c-0.2,0.4-0.5,0.4-0.9,0.7c0.9-0.4,1.1,2.3,2.5,1.5l-0.2,0.4
							c2.3,1.5,3.6,1.8,5.5,3c0.6-0.9,1.2-0.2,2.3-0.7c1.2,1.1,2.3,2.8,4.1,3.7c1.5,0.2,0.8-0.6,1.7-0.9c-0.4,0.9,1.3,1.9,0.1,2
							c1.1,0.5,1.7,0.9,2.5,1.2c0.8,0.3,1.7,0.6,3.2,0.9c-0.1-0.5-0.3-0.9,0-1.1c0.6,0.1,0.9,1,0.6,1.4l-0.2,0
							c3.7,0.2,5.5,6.3,8.9,5.6l-0.2,0l3,0.2c1.1,0.7-1,0.4-0.5,1.3c3.5-0.3,4.2,2.3,6.9,2.3c0.2,1.8,1.8,2.4,3.6,2.9
							c1.7,0.5,3.6,0.9,4.4,2.3l0.1-0.7c0.9-0.4,0.6,0.7,1,1c0.1-0.5-0.4-0.9,0.1-1.1c2.8,0.8,5.4,1.9,8,3.4
							c2.6,1.4,5.2,3.1,7.9,4.3c2,0.8,2.3-3.1,4.3-0.7l-1.1,1c2.3-0.1,4.4,0.6,6.5,1.3c2.1,0.6,4.2,1.2,6.4,1.1
							c-0.3,0.2-0.4,0.6-0.8,0.5c0.6,1.2,3.2,0.9,3.4,0.1c0.6,0.3,0,0.7,0.3,1.2c0.7,0.8,2.5-0.6,2.7,0.4c0,0.2-0.3,0.2-0.5,0.3
							c0.7-0.3,2.6,0.7,2.3-0.5c1.4,0.9,3.1,0.2,4.1,1.1c1.1-1,2.5,1.2,3.1-0.5c-0.5,1.7,2.4,2,3.6,1.3c-0.4,0.5,0.7,0.7,0.2,1.4
							c1.1,0.2,2.2,0,2.2-0.9c1.7,2.5,4.4-1,5.1,1.9c1.7-0.2,3.4-0.3,5-0.5c1.6-0.1,3.2-0.2,4.7-0.2c-0.3,1.8-3.3-0.2-3.5,1.6
							c3-0.4,4.8-1.7,7.6-0.9c0.7,0.3-0.5,0.7-0.8,1c1.5-0.2,2.8,0,4.2,0.1c1.3,0.1,2.7,0.2,4-0.2c0,0.2-0.3,0.3-0.6,0.4
							c0.5,0,1.1,0.4,1.2-0.5l-0.5,0.2c-0.7-1.3,2.2-2.3,2.3-2.9c-1,2.3,2.5,0.8,0.9,3.6c0.3-0.1,0.8-0.5,0.7-1
							c0.5,0.2,0.6,0.5,0.1,1.1c1.8-0.3,1.2-1.2,2.9-1.1c0,0.4-0.4,0.5-0.6,1c0.9-0.7,1.7-1.5,3.1-1.1c-0.1,0.2,0.1,0.6-0.4,0.5
							c2.4,0,4.1-1.9,6.7-1c-0.8,1.7,0.9,0.6,1,2.1c0,0,0.4-0.1,0.7-0.2c0.4-0.1,0.7-0.2,0.7-0.2l-0.5-0.7c1.2,0,2.3-1.1,3.4-0.6
							l-0.9,0.6l2.3-0.3l-1.3-0.6c1.2-0.8-0.1-1.9,1.5-1.5c-0.3,0.2,1.2,0,1.8,0.9l0,0c0.6-0.5,1.2-1,2.1-0.6c0.2,0.5-0.2,1.7,0,2
							c0.6-1.3,2.9-0.3,3.6-1.7c-0.2,0.3-0.2,1.1-0.1,1.3l0.5-1c0.6,0.3,0.7,0.5,0.6,1.1c1.7,0.1-0.6-1.9,1.4-1.1
							c-0.2,0.1-0.1,0.2-0.4,0.4c2,0.3,3.9-0.8,5.7-0.4c0.6,1.5-1.6,0.4-0.9,1.7c1.3-0.2,2.7-0.7,4.1-1.1c1.3-0.5,2.7-0.9,4-0.8
							l-0.5-0.1c0.2-2.1,2,0.9,3.2-0.2c-0.3,0.2-0.3,1.2-0.2,1c1.8,0.2,3.6-0.8,6.2-1.8l-0.3,0.6c1.1,0.3,2.8-0.1,3.9,0
							c0.3-0.6,0.9-0.6,0.4-1.3c1.9,1.3,3.5,0.7,5.1,0c1.5-0.7,3-1.5,4.7-0.5c-0.4,0.1-0.8,0.6-0.5,0.6l2.5-1
							c-0.4-0.9-0.4-0.5-1.1-1.1c0.2-0.6,0.9-1.1,1.5-1.3c-1.1,0.8,0.3,1.5,0.9,1.9c-0.1-0.3,0-0.6-0.1-0.9c1.6,1.4-0.1-1.9,1.9-1.1
							l0,0.5c0.6-0.4,1.2-1.1,1.9-1.1c0.5,1-0.6,0.6-0.5,1.5c1-0.3,1.7-2.3,2.8-1.5c-0.4,0.4-1,0.5-1.4,0.9c1.3,1.1,1.3,0.7,2.1,0.7
							l-0.1,0l1.9,0.2l-0.5-0.2c0.7-3,2.5-1.1,3.9-3.3c-1.3,2.1-0.1,1,0.1,2.2c0.5,0.2,1.3,0.4,1.2,0.8c0.6-1.1,1.6,0.4,2.4-1.2
							c0.1,0.4,0.9-0.2,0.9,0.8c1-0.5-0.4-0.6-0.4-1.1c1.3-1.6,4.3,0.5,6.2-1.9c1.8-1.3,1.9-2.7,3.5-3.8c0.8,0.4-0.1,1.5-0.1,1.5
							c1.2,0.3,1.9,0,2.8-0.7c-0.1,0.4,0.2,0.6,0.6,0.9c0.7-0.3,0.1-1.5,1.3-1.3c0,0.5-0.1,1.2-0.3,1.7c0.8-0.6,1.5-1.6,2.3-2.3
							c0.5,0.6-0.3,1.2-0.5,1.7c1-0.6,2.5-1.5,2.5-2.6l-0.8-0.1c0.4-0.2,0.5,0.8,0.3,1.1c-0.6,1.1-1.4,0.1-1.6-0.3l0.6-0.5
							c-1.4-2-2.5,1.2-3.9,1.5l0.1-1.8c0,0-0.2,0.4-0.5,0.9c-0.2,0.4-0.5,0.9-0.5,0.9c-0.4-0.3-0.9-1.2-0.3-1.6
							c-1.2-0.5-0.7,0.8-1.8,0.1c-0.1-0.1-0.1-0.2,0-0.3l-0.8,0.7c0.1-0.4-0.5-1.1,0.2-1c-1.9-0.5-2.4,1.9-3.4,0.9l0.1-0.1
							c-2.2,1.2,0.1,1.2-1.3,3.1l-2-2.6l0.1,1.2c-0.3,0-0.8,0.1-0.8-0.4c-0.7,1.1,0.3,0.5,0,1.4c-1.4-0.7-3.1,1.3-3.8-0.5
							c-0.2,1,1.3,0.4,0.2,1.4c-0.8-2-1.4,0.7-2.7,0c0.1-1.1,1.2-0.8-0.1-1.5c-0.2,1.9-2.2,0.1-3,0.6c0.3,1.4-1.8,1-3.3,1.9
							c0-0.5-3-0.2-4.6-0.5l0-0.2c0,1.5-1.5,1.5-2.5,2c-0.1-0.9,0-1.2,0.5-1.7l-1,0.2c-0.2,0.5-0.4,0.8-1,1.1l0.1-1.1
							c-1.3,0.3-2.5,1.8-4.3,1.3c0.1,1,1.8,2.6,0.1,3.6c-0.2-0.5-0.4-1.5,0.1-1.8c-0.1,0.1-0.5,0.5-0.8,0.3l0.6-1
							c-0.9-0.3-0.3,0.8-0.9,0.8c-0.1-0.8-0.6-0.5-0.6-1.1c0.1-0.1,0.6,0.2,0.8-0.1c-0.7,0-1.7-0.4-2-0.9c0.1,0.4,0.2,1.1-0.4,1.2
							c-1.3,0.2-0.6-0.9-1.4-1.2c-0.3,0.6-1.2,0.1-1,1.3c-0.4,0-0.5-0.5-0.7-0.8c-0.6,0.6-3.2,0.6-2.3,1.7l0.2,0.1
							c0,0-0.1,0-0.1,0.1c0,0,0,0,0,0l0,0c-2.2,1.5-4.8-0.2-7.1,0.6l0-0.4c-1.3,0.6-3,0.5-3.9,1.5c-0.4,0-1-0.6-0.9-1.1
							c-1,0.4-1.1,0.9-2.7,0.3c1-0.7-0.4-0.6,1-0.6c-1.4-0.2-1.7-0.9-3.1,0.3c0.4-1-1.1-1.2-1.7-0.9l1,0.7c-0.7,0.2-1.4,0.1-2,0.1
							l0.3-1.3c-2.8-1.5-4.9,3-7.1,0.3c-0.7,0.9,1.5,0.6,0.9,1.7c-1.3-0.1-2.6-2.1-3-2.1c-1.7-0.7-1.6,1.9-3.4,1.4
							c0.2,0.5,0.5,1.7-0.9,2.2c-1.3-0.2-1.6-2-0.8-2.4c0.3,0,0.5,0.1,0.4,0.3c0.4-0.2,1-0.4,0.4-0.9l-0.2,0.5
							c-0.6-0.5-2.4-0.4-2-1.2c-1,0.5-0.4,0.8,0.3,1c-1.6-0.7-2.5,0-4.2-0.5c0.3,0.3,0.5,0.8,0.2,0.8c-2.4-0.7-1.1,0.9-2.8,1
							c-0.9-0.8,0.4-1.7-1.3-1.2c-1-0.5-0.2-1.3,0.3-1.6c-1.6,0.9-2.8-0.7-3.7-0.9l0.8-0.3c-0.5,0.2-0.9,0.2-1.3,0.2l0.4,1
							c-0.5-0.2-0.9-0.2-0.8-0.6c-0.5,0.6,0.3,1.6-0.7,2.4c-0.6-0.5-2,0.4-2.1-0.9c1.9,0.6-0.1-1.3,1.5-1.4
							c-0.3,0.1-0.7,0.1-1.2-0.1c-0.1-0.1,0.1-0.3,0.2-0.3c-1.8-1.3-1,1.3-2.9,1.2c0.3-0.7-0.4-1.4-0.7-1.3c0.8,0.1,0.3,1.2-0.5,1.7
							c-1.2-0.7-1.4,0.3-2.1,0.2l0.7,0.3c-0.3,0.7-0.9,0.5-1.8,0.7c0-0.6,0.8-0.3,0.5-0.6c-1.1,1.2-2.1-1.5-3.5-0.7
							c-0.6-0.5,0.1-1.3-0.4-1.7c-1.6,0.8-1.5-1.2-3.2-0.6c0.3,1,0.5,0.8-0.8,1.6l2.7-0.3l-1.8,1.2c0.8,0.1,1.7-0.4,2.2-0.2
							c-0.9,0.7-0.8,0.4-0.5,1.3c-0.9-1.6-2.2,0.6-3.4-0.6l0.3-2.3c-1.7-1.3-3.5,0.8-5.8-0.1l0.7,0.5c-0.5,0.9-1.5-0.1-2.4,0.2
							c0.2-0.8-0.3-1.1-0.5-1.7c0,0.6-1.8-0.4-2.2,1.2l-0.9-1.2c-1.9-0.8-2.6,1.8-4.5,1.2c0.7-0.7,0-1.4,1.3-1.8
							c-0.6-0.1-1.2-0.4-1.3,0.2c-0.3-0.5-1.9,0.7-2.4-0.1c-0.3,0.3-0.6,1.1-1.3,0.9c0-0.2,0.1-0.4,0.1-0.4
							c-0.1,0.4-1.2,0.3-0.8,1.3c-1.4-2.8-5.4-1-6.7-3.4c-1.4,0-3.1-0.2-4.4-0.4c0.1-0.2,0.1-0.4,0.3-0.3c-1.5-1.1-1.6,1.9-3.3,0.6
							c-0.7-1.5,1.2-0.4,0.7-1c0.4-2.6-2.4-0.3-3.3-2.1l0.4-0.1c-0.7-1.1-2.7,0.3-4.2-0.3c0,0,0.1-0.2,0.1-0.4
							c-1.5,1-3.7,0.8-5.3,0.6c0.8-0.8,0.9-0.3,0.9-1.4c-0.7-0.1-0.3,1.7-1.7,1.5c-0.3-0.7-1.1-1.5-0.9-2.5l1.3,0.3
							c-0.2-1.6-1.7-0.5-2.3-0.9l0.3-0.6c-2-0.4-2.5,1.1-4.6,0.3l0.1,0.5c-1.7,1.1-0.7-1.1-2.2-0.5l0.2-1.6
							c-0.9,0.1-3.2,0.5-4.6,0.2c1.2-0.8,3-0.8,4.2-1.1c-0.7-0.3-2.6-0.8-3.2-0.2c0.4,0,0.9-0.3,1.1,0.1c-1.3,0.8-2.8,1-4.3,0.4
							c1.4-2.8-3.6-2.1-3.8-4.8c-3,0-4.9-2.6-8-3.7c0.1,2.6-0.9-0.3-1.7,2c-0.8-0.2-1-0.3-1-0.5l-1.5-2.3c-0.2-0.9,0.9-0.2,1-0.7
							c-1.4-0.9-0.2-1.2-0.9-2.3c-0.2,0.9-1.1,0.9-1.8,0.2l0.7,1.6c-2.7,0.2-0.9-2.7-3.6-2.5l1-0.4c-0.6-0.1-1.6-0.5-2.7-0.8
							c-1.1-0.3-2.2-0.5-3.2,0.1c-0.1-0.4,0-1.1,0.5-1c-2.4-1.6-6.6-1.1-8-3.2l0.5-0.4c-0.6-0.1-1.4,0.5-1.6-0.3
							c0.2-0.2,0.5-0.4,0.3-0.6c-0.3,0-1.7,0.2-2.2-0.5l0.9-0.3c-2-2.1-4.5-0.8-6.8-1.6c0.9-1.5-0.7-3.1-1.5-3.9l0.2-0.2
							c-2.6-1.9-5.4-1.8-8.3-2.8c-0.5-2.5-4.8-4.3-6.6-6.9c0.2,0.5-0.9,1.1-1.4,0.9c-0.4-0.7-2.3-0.2-1.3-1.4l0.2,0.2
							c0.5-1.6-0.9-2.1-1.8-2.8l-1.4,1.6c-0.5-4.3-6.8-3.9-6.4-7.1c-0.9,0-1.6-0.6-2.5-0.6l0.7-0.8c-1.3-1.5-2-2.3-4-3.6l0.9-0.3
							c-1-0.9-3.5,1.3-4.5,0.6l0.8-1.5c-1.9-1.5-2.6-4.3-5.4-4.8c0.2-0.2,0.6-0.5,0.9-0.3c-0.8-0.8-2.4-3.8-3.7-1.9
							c1-1.1-1.7-1.8-3.1-2.2l0.9-0.7c-1.8,0.2-2.1,0.5-3.4-0.3c-0.2-0.4,0.4-0.9,0.5-0.3c-0.4-1.3-1.4,0.1-2-1.4l0.9-0.1
							c-0.8-1-1-0.6-2.1-0.5c-0.9-0.3-1.5-1.9-0.9-2.7c-0.6,0.3-1.6,0.4-1.9-0.3c0.2-0.3,0.6-0.3,0.7-0.3c-0.9-2-3.1-1.4-3.2-3.2
							c0.3-0.3,0.3-0.5,0.3-0.6c1.1,1.3,1.9,2.3,1.8,2.3c0.7-0.7,0-1.8,1.7-2c-1.3-0.3-3.7-0.5-4.3-1.8c0-0.1,0.1-0.2,0.1-0.4l0.2,0
							c-0.1-0.3-0.4-0.4-0.7-0.5c-0.2-0.4-0.2-0.7-0.5-1c0.5-0.7-0.7-1.4-1.1-2c-0.8,0.8-1.3,0-1.4,1.2c0-0.1,0.2,0,0.5,0.3
							c0.1,0.1,0.2,0.1,0.3,0.1c0,0-0.1,0-0.1,0c0.3,0.3,0.7,0.7,1.2,1.2c-0.8,0-1.5-0.1-1.5-1.1c-0.8,0.2-1.6,0.4-2,0.5
							c0.3-0.9,0.3-1.8,0.3-2.5c0-0.8,0.1-1.5,0.3-1.9c-1.8-1.2-3.4-3.4-5.8-3.1c-0.6-0.3,0-0.9,0.2-1.3c0.4,0.1,0.6,0.5,1,0.4
							c-1.2-0.6-2.4-2.5-3.7-1.8c-0.4-1.6,1.6-0.2,0.1-1.6l0.5-0.1c-0.3-2.3-2-3-3.7-3.8c-1.7-0.8-3.4-1.7-3.5-4.4
							c0,0.4,0.1,0.5-0.1,0.7c-1-2.4-2.6-4.4-4.3-6.4c-1.6-2-3.2-4-3.6-6.7c-0.4-1.4-1.3-1-2.3-1.4l0.9-0.9l-2-0.5
							c-1-0.6-0.8-1.8-0.8-2.9c0-1.2-0.1-2.3-1.6-2.9l-0.5,0.7c-0.3-0.9-1.9-2.4-1-2.7C9,6.7,8.3,6.9,8.5,6.4L9,6L6.9,4.5
							c-0.5-1.8,2.3-1,1.2-3.3c-0.7-0.7-3-1.6-3.2-1c0.2,0.4,0.1,1.1-0.4,1.4L3.8,0.9C2.1,1.7,0,1.9,0,4.5l1.8,0.8L1.2,6.2L0.5,5.1
							C0.1,6.1,1,6.2,1.8,6.4C1.4,6.8,1.2,7.1,1.2,7.5L3.5,8C3,8.5,1.9,8.1,2.1,9.2c1.1,0.2,1.1-1.4,2.1-0.6c-0.4,1.1-1.1,1.2,0,1.6
							c-0.4,0.3-0.7,0.3-1.1,0.1C4,10.7,4.3,12,5.4,11.8c-0.5,1.2,1.6,2.1,0,3c0.5,0,1.9,0.5,2.4,1c-2.5,0,1.3,2.4-0.8,3.2
							c2.1-0.2,2.6,2.6,4.4,3.5c-0.2,0-0.5,0-0.5-0.2c0.4,0.9,0,1.5,0.1,2.2c1.4-0.8,2.5,0.3,3.8,0.4c-0.6,1.8-1.9,0.4-2.9,1.5
							c1-0.8,2.2,1,2.9,0.1c-0.3,1.3,0.1,0.9-0.7,2c1.7-1,0.8,0.5,2.2,0.5c-0.1,1.6-1.3,1.3,0,2.2C16,32.2,14.7,31.5,14.7,31.5z
							 M38.8,56.3C38.8,56.4,38.8,56.4,38.8,56.3c-0.2-0.2-0.4-0.4-0.5-0.5C38.4,56,38.5,56.1,38.8,56.3z M40.7,58.5
							c-0.2-0.3-0.5-0.6-0.8-1c0.2-0.3,0.6-0.5,0.8-0.3C40.4,57.3,40.7,57.9,40.7,58.5z M42.5,48.8c0.4,0.2,0.3,0.5,0.2,0.7
							c-0.2-0.1-0.3-0.3-0.6-0.5c0,0-0.1,0-0.1,0.1C42.1,48.9,42.3,48.8,42.5,48.8z"/>
						<path id="XMLID_745_" class="st0" d="M40.9,49.2c-0.1,0-0.1,0-0.2-0.1c0,0.1,0,0.3,0,0.4c0.1,0,0.3-0.1,0.4-0.1
							C41,49.3,40.9,49.2,40.9,49.2z"/>
						<path id="XMLID_744_" class="st0" d="M269.8,138.2L269.8,138.2c0,0,0,0.1,0.1,0.1C269.9,138.3,269.8,138.2,269.8,138.2z"/>
						<polygon id="XMLID_743_" class="st0" points="68.4,87.3 68.6,87 68.2,87.1 						"/>
						<path id="XMLID_742_" class="st0" d="M285.9,139.7c0,0.1,0.1,0.2,0.3,0.2C286.1,139.8,286,139.7,285.9,139.7z"/>
						<path id="XMLID_741_" class="st0" d="M292.7,138.6l1,0.2C293.2,138.7,292.9,138.6,292.7,138.6z"/>
						<path id="XMLID_740_" class="st0" d="M297.9,138c0-0.2,0-0.4,0-0.5c0,0,0,0,0,0L297.9,138z"/>
						<path id="XMLID_739_" class="st0" d="M214.6,145.1c-0.1,0-0.1,0-0.2,0C213.9,145.3,214.2,145.2,214.6,145.1z"/>
						<path id="XMLID_738_" class="st0" d="M239.6,143.4c-0.3,0.2-0.5,0.4-0.8,0.5C239.3,144.1,239.6,144.1,239.6,143.4z"/>
						<path id="XMLID_737_" class="st0" d="M186.7,142.7C186.7,142.7,186.7,142.7,186.7,142.7c-0.1,0-0.1,0-0.2,0L186.7,142.7z"/>
						<path id="XMLID_736_" class="st0" d="M237.7,144c0.4,0.2,0.8,0.2,1.2,0C238.4,143.9,238,143.8,237.7,144z"/>
						<path id="XMLID_735_" class="st0" d="M320.1,132.5l0.3,0c0-0.1,0-0.1,0-0.2L320.1,132.5z"/>
						<path id="XMLID_734_" class="st0" d="M320.3,132.3l0.2-0.2C320.4,132.1,320.3,132.1,320.3,132.3z"/>
						<path id="XMLID_733_" class="st0" d="M321,131.6l-0.5,0.5C320.7,132,321,131.9,321,131.6z"/>
						<path id="XMLID_732_" class="st0" d="M313.3,134.1l0,0.4C313.3,134.4,313.3,134.2,313.3,134.1z"/>
						<path id="XMLID_731_" class="st0" d="M311.3,134.7c0.5,0,1.5,0.5,2.1,0.1l0-0.3C313.2,135.1,311.5,134,311.3,134.7z"/>
						<path id="XMLID_730_" class="st0" d="M301.5,132.2c0,0,0.4,0,0.9,0c0.4,0,0.9-0.1,0.9-0.1c-0.4-0.3-0.9-0.8-0.2-1.1
							C300.7,130.2,303.8,131.8,301.5,132.2z"/>
						<path id="XMLID_729_" class="st0" d="M296.1,132.7c0.9-0.4-0.2-0.6-0.2-0.9C295.5,132.4,295.3,132.5,296.1,132.7z"/>
						<path id="XMLID_728_" class="st0" d="M257.6,138.5l0-1C256.9,137.7,257.6,137.9,257.6,138.5z"/>
						<polygon id="XMLID_727_" class="st0" points="250.4,144.2 251.2,144.8 251.5,143.8 						"/>
						<polygon id="XMLID_726_" class="st0" points="245.7,137.1 246,136.9 244.8,137.4 						"/>
						<path id="XMLID_725_" class="st0" d="M181.1,131.4l-0.1,1.3C181.6,132.6,182,131.2,181.1,131.4z"/>
						<path id="XMLID_724_" class="st0" d="M153.7,125.2c-0.1-0.7-0.7-1.3-1.4-0.9C152.9,124.6,153.3,125.3,153.7,125.2z"/>
						<polygon id="XMLID_723_" class="st0" points="80.6,84 81.3,84 80.2,83.6 						"/>
					</g>
				</g>
			</g>
		</g>
	</g>
	<g id="XMLID_421_">
		<g id="XMLID_647_">
			<g id="XMLID_651_">
				<g id="XMLID_652_">
					<g id="XMLID_653_">
						<path id="XMLID_714_" class="st0" d="M343,173c0.1,0.3,0.7,0.9,0.8,0.6l-0.7-1.2L343,173z"/>
						<path id="XMLID_713_" class="st0" d="M345.8,173.8c-0.2-0.7-0.7-1.8-1.6-2.6c0.6,1.2,0.2,0.8,0.9,2.2
							c-0.1,0.3-0.6-0.1-0.9-0.5c0.1,0.3-0.5,0-0.1,0.7c0.9,0.6,1.2,0.4,1-0.6C345.5,173.3,345.6,173.6,345.8,173.8z"/>
						<path id="XMLID_712_" class="st0" d="M363.5,156.2l-0.2,0C363.4,156.3,363.5,156.2,363.5,156.2z"/>
						<path id="XMLID_711_" class="st0" d="M372.4,143.6c0,0.1,0,0.2,0.1,0.3C372.6,143.8,372.6,143.7,372.4,143.6z"/>
						<path id="XMLID_710_" class="st0" d="M375.1,142.2c-0.1,0-0.1,0.1-0.2,0.1C375.1,142.3,375.1,142.3,375.1,142.2z"/>
						<path id="XMLID_709_" class="st0" d="M363.5,156.2l0.6-0.1C363.7,155.8,363.7,156.1,363.5,156.2z"/>
						<path id="XMLID_708_" class="st0" d="M346.2,169.2c0,0.1,0,0.2,0.1,0.4c0-0.1,0-0.2,0.1-0.2
							C346.2,169.3,346.2,169.3,346.2,169.2z"/>
						<path id="XMLID_701_" class="st0" d="M360.4,162.5l-0.1,0.1c0.1,0.1,0.2,0.3,0.4,0.4L360.4,162.5z"/>
						<path id="XMLID_700_" class="st0" d="M357.3,166.8c0.1-0.1-0.7-0.8-1.1-1.2c0.3,0.3,0.4,0.6,0.4,0.7
							C356.8,166.5,357,166.6,357.3,166.8z"/>
						<path id="XMLID_699_" class="st0" d="M350.1,171.7l0,0.2C350.1,171.9,350.1,171.8,350.1,171.7z"/>
						<path id="XMLID_698_" class="st0" d="M362.8,159.5c0.1,0.1,0.3,0.2,0.4,0.2C363.1,159.6,363,159.6,362.8,159.5z"/>
						<path id="XMLID_697_" class="st0" d="M316.1,91.8c0-0.1,0-0.1,0-0.2C316.1,91.7,316.1,91.8,316.1,91.8z"/>
						<path id="XMLID_696_" class="st0" d="M311.6,85L311.6,85c0.2-0.2,0.2-0.4,0.3-0.6L311.6,85z"/>
						<path id="XMLID_695_" class="st0" d="M378.9,139.1C378.9,139.1,378.9,139.1,378.9,139.1C378.9,139.3,378.9,139.3,378.9,139.1z
							"/>
						<path id="XMLID_694_" class="st0" d="M392.8,105.8c0,0.5-0.5,0.7-1,0.8c-0.5,0.2-0.9,0.4-0.8,1c0.1-0.2,0.6-0.5,1.1-0.8
							C392.6,106.6,393,106.3,392.8,105.8z"/>
						<path id="XMLID_693_" class="st0" d="M346.4,169.3c0-0.1,0.1-0.1,0.1-0.1C346.4,169.1,346.4,169.2,346.4,169.3z"/>
						<path id="XMLID_692_" class="st0" d="M390.9,107.7L390.9,107.7l0,0.1C390.9,107.8,390.9,107.7,390.9,107.7z"/>
						<path id="XMLID_691_" class="st0" d="M384.7,130.3c-0.2-0.1-0.3-0.2-0.4-0.2C384.3,130.2,384.5,130.2,384.7,130.3z"/>
						<path id="XMLID_690_" class="st0" d="M378.6,135.6l0.2-0.1C378.7,135.5,378.6,135.6,378.6,135.6z"/>
						<path id="XMLID_689_" class="st0" d="M386.2,126.3c0.1,0,0.3,0.1,0.3-0.1c-0.1,0-0.1,0-0.1-0.1
							C386.4,126.2,386.4,126.3,386.2,126.3z"/>
						<path id="XMLID_688_" class="st0" d="M389.3,123.3c-0.1,0-0.1-0.1-0.2-0.1c0,0,0,0.1-0.1,0.1L389.3,123.3z"/>
						<path id="XMLID_687_" class="st0" d="M329.3,94.7c0-0.3,0-0.7,0.1-1C329.2,94.5,328.5,94.6,329.3,94.7z"/>
						<path id="XMLID_686_" class="st0" d="M346.6,169.7c-0.2-0.2-0.2-0.3-0.2-0.4c0,0,0,0.1-0.1,0.1
							C346.4,169.5,346.5,169.6,346.6,169.7z"/>
						<path id="XMLID_685_" class="st0" d="M380,120l0.6-0.4C380.4,119.6,380.2,119.8,380,120z"/>
						<path id="XMLID_684_" class="st0" d="M359.7,103.7l-0.2,0.1C359.5,103.8,359.6,103.8,359.7,103.7z"/>
						<path id="XMLID_683_" class="st0" d="M382.2,117.8c0.4,0.2,0.6,0.3,0.8,0.3c0-0.1-0.1-0.2-0.1-0.3L382.2,117.8z"/>
						<path id="XMLID_682_" class="st0" d="M329.3,93.7L329.3,93.7L329.3,93.7z"/>
						<path id="XMLID_677_" class="st0" d="M324.2,95c0.6,0.2,0.7-1.3,1-2.1c0.9-0.2,0.1,1.1,0.1,1.9c0.6-0.3,1.3-1.5,1.6-1.3
							c0,0.2,0,0.3-0.2,0.6c0.8-1,1.5,0.4,2.5-0.9c0,0.1,0,0.3,0,0.4c0.1-0.7,0.3-1.5,0.4-2c0.3,0.1,0.8-0.8,0.6,0.2
							c-0.2-0.1-0.3,0.3-0.5,0.6l0.4-0.3c-0.1,1.4-0.5,0.3-0.8,1.3c0.7-0.3,1.7-1.2,2.1-0.7c-0.3,1.3-1.2,0.1-0.9,1.5l-0.6-0.7
							c0,2.2-0.4-0.3-0.5,2.1c0.8,0.6,1.2-0.4,2,0.3c0.4-0.7,0.2-1.1,0.6-1.8c1.7-0.9,0.1,3.6,1.6,2.1c0.5-0.8,1.1-2.4,1.5-1.4
							l-0.7,1.4c0.8,0.4,1.1-2,1.8-0.7c-0.3,0.5-0.8,0.3-0.8,0.5c0.3,1.3,0.7-0.7,1.1-0.6l-0.3,1.3c1,0.1,2.3-0.6,3.4-0.5
							c-0.2,0.4-0.5,0.7-0.3,1.2c1.5-0.3,2.8,1,3.8,2.1l0.8-1c0.1,0,0.1,0.6-0.1,0.8c0.4,0.6,0.2-0.7,0.6-1.1c0.3,0,0.2,0.8-0.1,1
							c1.2-0.7,3.1-1.3,3.7,0.2l-0.3,0.3c0.6,0.7,1.5-2.1,1.9-0.8l-0.2,0.2c1.4,1,3.4,0.5,4.1,2.6c0.7-1.5,1.3,1.2,2.1-1
							c0.5,1.4,0.1,1.7,1.1,2.9c0.3,0.2,1-1.2,1.4-1.3l-0.4,1.2l1-1L359,104l0.5-0.2c-0.1-0.1-0.2-0.6,0-1c0.8-0.3,1.2,1.3,1,1.9
							l1.7-0.5c-0.2,0.5-0.5,0.5-0.8,0.8c1.2-0.9-0.3,1.3,0.8,0.4c0-0.3,0.3-0.7,0.4-0.9c0.1,0.8,0.9,1.1,1.6,1l-0.4,0.8
							c1,0.6,2.3,0.4,3.5,0.8c-0.3-0.5,0.3-1.9,0.7-1.9l-0.3,1.3c0.5-0.7-0.2-0.6,0.6-1.4c0.4,0.3-0.2,1.5-0.6,1.8l0.7-0.2
							c-0.1,0.4-0.3,0.5-0.5,1c0.5-0.7,0.5,1.6,1.3,0.3l-0.1,0.4c1.2,0.4,1.9,0.2,2.8,0.5c0.4-1.1,0.7-0.7,1.3-1.4
							c0.6,0.6,1.1,1.7,1.9,1.9c0.8-0.3,0.5-0.8,1-1.4c-0.3,1,0.6,1.2-0.1,1.7c1.1,0.2,1.4,0.3,2.9,0c0-0.4-0.1-0.7,0.1-1
							c0.3-0.1,0.4,0.6,0.2,1l-0.1,0.1c2-0.9,2.3,4,4.2,2.5l-0.1,0.1l1.6-0.6c0.5,0.4-0.6,0.6-0.4,1.3c0.2-0.1,0.4-0.2,0.6-0.3
							c0.1,0,0.2,0,0.3,0c0.1,0,0.1,0,0.1,0c0.1,0,0.2,0,0.2,0.1c0.1,0.2,0,0.4,0.6,0c-1,1.3-1,1.2-0.6,1.1c0.3-0.1,0.9-0.2-0.3,0.4
							l0.9-0.4c1-0.4-0.5,0.3-0.7,0.3c0.8-0.3,0.8-0.4,1.4-0.6c0.8-0.1,1,0.1,0.6,0.4c-0.2,0.1-0.5,0.2-0.9,0.3
							c-0.2,0-0.4,0.1-0.7,0.1l-0.7,0.1c-0.3,0-0.5,0-0.7,0c-0.2,0,1.5,0,2.7,0c1.3,0,2.1,0.1,0.5,0.2c0,0-0.5,0-1-0.1
							c-0.5,0-1.1-0.1-1.1-0.1c1.2,0.1,0.9,0.3,0.7,0.4c-0.3,0.1-0.4,0.1,0,0.7c-0.3-0.2-0.6-0.4-0.6-0.4c-0.5-0.2-0.5-0.3-0.4,0
							c0.1,0.2,0.3,0.6,0.6,0.8c-0.2,0-0.6-0.4-1-0.7c-0.3-0.1-0.1,0.1,0,0.4c0.1,0.2,0.2,0.5-0.2,0.1c-0.1-0.1-0.2-0.3-0.2-0.3
							c0.1,0.2,0.1,0.2-0.2,0.5c-0.2,0.2-0.2,0.4,0.2,0.8c-0.9,0.1-0.8,1.4-1.7,1.3c0.6,1.2-1.4,0.5-0.2,1.8c-1.2-1.3-2-0.1-1.7,0.9
							c-0.3-0.5-0.7-0.1-1.1-0.8c-0.4,0.4-0.5,1,0.3,1.6c-2.3-0.7-0.1,2.7-2.5,1.3c-0.4,1.9-0.8,3.5-1.3,4.8
							c-1.4-1.2,0.8-1.4-0.7-2.5c-0.3,1.6,0.4,3.1-0.7,3.9c-0.4,0.1-0.5-0.6-0.7-0.9c-0.2,1.5-1.7,2-1.6,3.6
							c-0.1-0.1-0.2-0.3-0.3-0.5c-0.1,0.2-0.5,0.3,0.1,0.8l0-0.3c1.2,0.4,1.5,2.2,2,2.6c-1.7-1.7-1.2,0.6-3.2-1.6
							c0,0.2,0.2,0.6,0.7,0.9c-0.3,0.1-0.6,0-0.9-0.6c-0.1,1,0.8,1.2,0.3,1.8c-0.3-0.2-0.4-0.4-0.7-0.8c0.4,0.8,0.8,1.5,0.2,1.9
							c-0.2-0.2-0.5-0.3-0.4-0.4c-0.5,1,0.7,2.7-0.6,3.3c-1.3-1.2-0.7,0-2-0.7l0,0.8l0.7,0.2c-0.3,0.5,0.3,1.5-0.4,1.6L368,140
							l-0.3,1l0.8-0.2c0.3,0.9,1.6,1,0.9,1.4c0-0.2-0.3,0.5-1.2,0.2l0,0c0.3,0.5,0.5,1,0,1.2c-0.5-0.2-1.3-1-1.7-1.1
							c0.9,0.9-0.4,1.3,0.5,2.3c-0.2-0.3-0.9-0.7-1-0.7l0.7,0.7c-0.4,0-0.6,0-1.1-0.4c-0.6,0.6,1.7,0.8,0.5,1.2
							c0-0.1-0.2-0.2-0.2-0.4c-0.9,0.6-0.4,1.9-1.3,2.3c-1.4-0.6,0.1-0.8-1.1-1.3c-0.4,1.2,0.2,3.1-0.8,3.9l0.3-0.1
							c1.7,1.3-1.4,0.2-0.8,1.2c-0.1-0.2-0.9-0.8-0.7-0.6c-0.7,0.5-0.5,1.7-0.6,3.1l-0.4-0.4c-0.7,0.1-0.9,0.9-1.4,1.2
							c0.4,0.4,0.1,0.6,0.9,0.9c-3.4-0.5-0.4,3.5-3.3,3.1c0.1-0.1-0.2-0.6-0.2-0.5l-0.3,1.2c0.8,0.5,0.5,0.2,1.3,0.4
							c0.4,0.4,0.5,1,0.3,1.2c-0.2-0.8-1.2-0.9-1.7-1c0.3,0.1,0.5,0.4,0.7,0.5c-1.7-0.5,1.4,1.2,0,1.2l-0.4-0.3c0,0.4,0.3,1,0,1.2
							c-0.9-0.5-0.2-0.6-0.9-1.1c-0.2,0.4,1,2-0.1,1.7c-0.1-0.3,0.1-0.6,0-0.9c-1.3-0.4-1.1-0.2-1.4,0l0,0l-1,0.3l0.4,0.1
							c1.8,2.2-0.4,1.3,0.5,3.1c-0.8-1.7-0.7-0.7-1.6-1.6c-0.4-0.1-0.9-0.1-1.1-0.4c0.5,0.9-1,0-0.3,1.3c-0.3-0.2-0.3,0.3-1-0.4
							c-0.1,0.6,0.6,0.4,0.9,0.7c0.5,1.5-2.4,0.2-1.8,2.3c-0.1,1.2,0.7,2.2,0.5,3.3c-0.7-0.2-0.8-1.2-0.8-1.2
							c-0.7-0.1-0.9,0.2-0.9,0.9c-0.2-0.3-0.4-0.5-0.8-0.7c-0.2,0.3,0.8,1.2,0,1.1c-0.2-0.4-0.6-1-0.8-1.4c-0.1,0.5,0.1,1.4,0,1.9
							c-0.5-0.4-0.5-0.9-0.7-1.4c-0.2,0.5-0.5,1.3,0.1,2.2l0.5,0.1c-0.1,0.2-0.7-0.6-0.7-0.9c-0.2-0.9,0.7-0.1,1,0.2l-0.1,0.4
							c1.8,1.5,0.7-1.1,1.3-1.4l0.9,1.4l-0.5-1.5c0.4,0.2,1.1,0.8,1.1,1.2c0.9,0.3-0.1-0.7,0.8-0.3c0.1,0.1,0.2,0.1,0.2,0.2l0-0.7
							c0.2,0.3,0.9,0.8,0.5,0.8c1.3,0.1,0.1-1.8,1.2-1.2l0,0.1c0.4-1.2-0.8-0.9-1.3-2.5l2.6,1.6l-0.8-0.9c0.1-0.1,0.3-0.2,0.7,0.2
							c-0.3-0.9-0.4-0.3-0.8-1c1.2,0.3,0.6-1.5,2.2-0.3c-0.6-0.8-0.9-0.1-1-0.9c1.7,1.2,0.2-0.8,1.3-0.5c0.7,0.8,0,0.8,1,1.1
							c-1.2-1.4,1-0.5,1-1.1c-1.1-0.9,0.2-1.1,0.2-2c0.4,0.3,1.5-0.6,2.3-0.8l0.2,0.2c-1.1-1-0.4-1.4-0.4-2c0.7,0.5,0.9,0.8,1.1,1.3
							l0.3-0.4c-0.3-0.4-0.4-0.6-0.4-1l0.8,0.7c0.3-0.6-0.3-1.8,0.8-2.1c-0.8-0.6-2.7-1.1-2.8-2.2c0.5,0.3,1.3,0.8,1.3,1.1
							c0-0.1-0.2-0.5,0.1-0.5l0.6,0.8c0.6-0.1-0.5-0.6-0.3-0.8c0.6,0.5,0.6,0.1,1.1,0.5c0,0.1-0.4,0-0.2,0.3c0.3-0.2,0.9-0.3,1.5,0
							c-0.4-0.2-0.9-0.6-0.8-0.9c0.3-0.6,0.9,0.4,1.5,0.3c-0.4-0.4,0.3-0.5-0.6-1.1c0.1-0.2,0.6,0.1,0.9,0.2
							c-0.2-0.6,0.8-1.4-0.5-1.8l-0.1,0c0,0,0,0,0-0.1l0,0l0,0c-0.4-1.6,1.8-1.5,2-2.7l0.3,0.2c0-0.8,0.6-1.3,0.1-2.2
							c0.1-0.2,0.8,0,1.2,0.3c0-0.6-0.3-0.9,0.6-1.1c0.3,0.8,0.6,0.2,0.2,0.7c0.6-0.4,1.2-0.1,0.7-1.3c0.7,0.7,1.3,0.3,1.2-0.1
							l-0.9,0c0.1-0.4,0.3-0.6,0.5-0.8l1,0.9c2.1-0.2-1.1-3.5,1.7-2.8c-0.6-0.8-0.9,0.2-1.7-0.6c0.5-0.4,2.4,0.1,2.5-0.1
							c1.1-0.3-1.2-1.7-0.3-2.1c-0.5-0.2-1.6-0.8-1.6-1.5c0.5-0.4,2.1,0.5,2.2,1c0,0.1-0.2,0.1-0.3,0c0,0.3,0.1,0.6,0.6,0.7
							l-0.4-0.3c0.6,0,1-0.7,1.5-0.1c-0.1-0.6-0.6-0.6-0.9-0.4c1-0.3,0.7-1,1.5-1.4c-0.3,0-0.8-0.2-0.7-0.3c1.1-0.6-0.5-0.9-0.2-1.7
							c0.8,0,1.4,1.1,1.3,0.1c0.7-0.1,1.1,0.6,1.3,1c-0.4-1.1,1.2-0.8,1.6-1l0.1,0.5c-0.1-0.3,0-0.5,0.1-0.6l-0.9-0.4
							c0.3-0.1,0.4-0.2,0.7,0c-0.4-0.5-1.4-0.7-1.9-1.6c0.6,0,0.1-1,1.2-0.4c-0.9,0.5,1.1,0.6,0.8,1.4c0-0.2,0.1-0.4,0.3-0.4
							c0.1,0.1,0.2,0.2,0.2,0.3c1.4-0.1-1-1.1-0.4-1.9c0.5,0.5,1.2,0.6,1.2,0.4c-0.2,0.3-1.1-0.5-1.3-1.1c0.8-0.2,0-0.8,0.3-1
							l-0.4,0.1c-0.5-0.5-0.3-0.7-0.2-1.2c0.5,0.3,0.1,0.5,0.4,0.5c-0.8-1.1,1.6-0.1,1.3-1.1c0.6,0.1,1.1,0.8,1.5,0.8
							c-0.3-1.1,1.2,0,1-1c-0.9-0.4-0.7-0.2-1.1-1.2l-0.2,1.4l-0.6-1.5c-0.2,0.3,0,1-0.2,1.1c-0.4-0.8-0.2-0.6-1-0.9
							c1.4,0.5-0.1-1.3,1.1-1.2l1.9,1.5c1.3,0,0-2,1.2-2.4l-0.5,0c-0.6-0.7,0.3-0.6,0.3-1.1c0.6,0.5,0.9,0.5,1.4,0.7
							c-0.5-0.4,0.6-0.6-0.6-1.7l1.1,0.3c0.9-0.4-1-2.3-0.2-2.7c0.4,0.8,1.1,0.9,1.2,1.7c0.2-0.2,0.5-0.3,0.1-0.7
							c0.5,0.2-0.2-1.3,0.5-1c-0.2-0.3-0.7-0.9-0.5-1.1c0.1,0.1,0.3,0.3,0.3,0.3c-0.3-0.3,0-0.7-0.8-1.1c2.4,1.1,1.7-1.9,3.7-0.8
							c0.1-0.3,0.3-0.6,0.5-0.9c0.1-0.2,0.2-0.3,0.3-0.4c0.1-0.2,0.3-0.3,0.4-0.4c0.1,0.2,0.3,0.3,0.1,0.3c1.4-0.1-1.1-2,0.3-2.1
							c1.5,0.5,0.1,0.8,0.8,0.9c1.1,0.8,1.4,0.5,1.5,0.1c0.1-0.2,0.2-0.5,0.4-0.6c0.2-0.2,0.6-0.3,1.2-0.2l-0.1,0.2
							c0.8,0,1-0.4,1.1-0.8c0.1-0.4,0-0.9,0.7-1.2c0,0,0.2,0.1,0.5,0.2c-0.9-1-0.5-1.8-0.3-2.3c1.6,0.4,0.5,0.4,2.6,0.5
							c0.1-0.1-0.7-0.2-1.4-0.3c-0.8-0.1-1.5-0.2-1.4-0.4c1.3,0,2.9-0.3,5.3-0.3l-0.8,0.5c1.6,0,2-0.2,2-0.4c0-0.2-0.3-0.4,0.2-0.5
							l1.3,0.1c0.6-0.4,0-0.6-0.6-0.8c-0.6-0.2-1.2-0.3-0.3-0.6l-1.4,0.1c-1.2,0-1.2-0.1-0.8-0.2c0.7-0.1,2.5-0.3,0.7-0.3l3.7-0.4
							c-0.2,0-0.6-0.1-1-0.1c-0.5,0-1.1-0.1-1.8-0.1c-1.2-0.1-2.4-0.2-3.1-0.3c1.3-0.1,2.6-0.1,3.8,0c1.2,0.1,2.4,0.2,3.4,0.2
							c-0.2-0.1-0.8-0.3-1.4-0.4c-0.7-0.1-1.5-0.2-2.4-0.2c0.5,0,1.5,0,1.3,0.2c-3.2,0.1-5,0-5.7-0.3c2.8-0.5,2.5-0.8,1.9-1.2
							c-0.6-0.4-1.4-0.7-0.2-1.5c-1.8-0.1-2.6-0.5-3.3-1.1c-0.8-0.6-1.5-1.2-2.9-1.7c-1.2,2.1-0.8-0.2-2.6,1.7
							c-0.6-0.1-0.7-0.1-0.6-0.3c0,0-0.1-0.4-0.2-0.9c-0.1-0.4-0.3-0.9-0.3-0.9c0-0.8,0.8-0.3,1.1-0.7c-1.2-0.7,0.1-1.1-0.5-2
							c-0.3,0.8-1.1,0.9-1.7,0.3c0,0,0.2,0.4,0.3,0.7c0.1,0.4,0.2,0.7,0.2,0.7c-2.3,0.5-0.7-2.4-2.2-1.7l0.6-0.6
							c-0.7,0.2-2-0.8-3.2,0.9c0-0.3,0.1-1,0.4-1.1c-1.2-0.8-3.6,0.9-4.2-0.6l0.3-0.5c-0.3,0.1-0.8,0.9-0.9,0.2
							c0.1-0.2,0.3-0.5,0.2-0.6c-0.2,0.1-1,0.8-1.2,0.3l0.5-0.5c-1-1.2-2.5,0.8-3.7,0.9c0.6-1.7-0.2-2.5-0.6-3l0.1-0.2
							c-1.4-0.7-3,0.5-4.6,0.7c-0.2-2.1-2.6-1.7-3.6-3.2c0.1,0.4-0.5,1.3-0.8,1.4c-0.2-0.4-1.3,0.9-0.7-0.7l0.1,0.1
							c0.3-1.6-0.5-1.4-1-1.6l-0.8,2c-0.4-3.4-3.9-0.1-3.7-2.9c-0.5,0.4-0.9,0.3-1.4,0.7l0.4-1.1c-0.8-0.6-1.2-0.8-2.4-1l0.5-0.7
							c-0.6-0.3-1.8,2.9-2.4,2.7l0.3-1.7c-1.1-0.3-1.8-2.1-3.3-1c0.1-0.2,0.3-0.7,0.5-0.7c-0.5-0.2-1.7-1.7-2.2,0.6
							c0.4-1.4-1.1-0.5-1.9,0l0.4-1c-0.9,1.2-1,1.6-1.9,1.7c-0.1-0.2,0.1-0.9,0.3-0.6c-0.4-0.7-0.7,0.9-1.2,0.1l0.5-0.6
							c-0.5-0.3-0.6,0.1-1.2,0.8c-0.5,0.3-1-0.6-0.8-1.6c-0.3,0.6-0.8,1.3-1,0.9c0.1-0.4,0.3-0.6,0.3-0.7c-0.7-1-1.8,0.8-2.1-0.4
							c0.1-0.4,0.1-0.5,0.1-0.7c0.7,0.2,1.3,0.5,1.3,0.5c0.3-1-0.3-1.3,0.6-2.6c-0.7,0.6-2,2-2.5,1.3c0-0.1,0-0.2,0-0.4l0.1-0.1
							c-0.1-0.1-0.3-0.1-0.4,0c-0.1-0.2-0.2-0.4-0.4-0.4c0.2-0.8-0.6-0.6-0.9-0.8c-0.3,1.1-0.6,0.8-0.5,1.8c0-0.1,0.1-0.1,0.3-0.1
							c0.1,0,0.1,0,0.2-0.1c0,0,0,0.1,0,0.1c0.2,0,0.5,0.1,0.8,0.2c-0.4,0.5-0.8,0.9-0.9,0.2c-0.4,0.6-0.7,1.3-0.9,1.6
							c0-1.6-0.6-2.7-0.4-3.6c-1.1,0.3-2.3-0.2-3.5,1.6c-0.3,0.2-0.1-0.7-0.1-1c0.2-0.2,0.4-0.1,0.5-0.3c-0.7,0.4-1.6-0.2-2.1,1.1
							c-0.5-0.8,0.7-1.2-0.2-1.2l0.2-0.4c-1.2-2.8-3.9,2.8-5.1-0.6c0.1,0.2,0.1,0.3,0.1,0.6c-1.9-1.9-5,0-6.8-2.7
							c-0.5-0.6-0.8,0.3-1.4,0.9l0.2-1.2l-1,1.2c-1.2,0.8-0.9-3.3-2.6-1.7l0,0.8c-0.4-0.3-1.5,0.1-1.2-0.8c-0.1,0.1-0.3,0.8-0.4,0.3
							l0.1-0.6l-1.3,0.8c-0.7-0.6,0.7-2.4-0.5-2.8c-0.5,0.1-1.7,1.5-1.6,1.9c0.2,0.1,0.4,0.5,0.2,1.1l-0.5,0.2
							c-0.5,1.8-1.3,3.6-0.6,5.1l1-0.9l0,0.9l-0.6-0.1c0.1,0.9,0.5,0.2,0.9-0.2c-0.1,0.5,0,0.8,0.1,1l1.1-1.6
							c-0.1,0.7-0.6,1.3-0.3,1.8c0.5-0.7,0.1-1.7,0.7-2.1c0.1,0.9-0.1,1.5,0.4,0.9c-0.1,0.5-0.2,0.8-0.4,0.9c0.5-0.5,1,0,1.4-0.9
							c0.1,1.1,1.2,0,0.8,1.7c0.2-0.4,0.9-1.2,1.3-1.2c-1.1,1.9,1.2,0.4,0.4,2.6c0.9-1.7,1.8-0.4,2.8-1.2c-0.1,0.1-0.2,0.4-0.3,0.3
							c0.4,0.3,0.4,0.8,0.6,1.3c0.4-1.5,1.2-1.7,1.8-2.5c0.1,1.6-0.8,1.7-1,3.1c0.3-1.2,1.2-1,1.3-2.1c0.2,1,0.2,0.5,0.1,1.8
							c0.6-1.9,0.5-0.2,1.1-1.3c0.3,1.1-0.3,1.8,0.5,1.4C324.9,94.5,324.2,95,324.2,95z M340.1,96C340.1,96,340.1,96,340.1,96
							c-0.1,0-0.3,0-0.3,0C339.9,96,340,96,340.1,96z M341.4,96.3c-0.1-0.1-0.3-0.2-0.5-0.2c0.1-0.4,0.2-0.8,0.3-0.7
							C341.1,95.7,341.3,96,341.4,96.3z M340.9,88.1c0.2-0.1,0.3,0.1,0.2,0.4c-0.1,0-0.2,0-0.4,0c0,0,0,0.1-0.1,0.1
							C340.7,88.4,340.8,88.2,340.9,88.1z"/>
						<path id="XMLID_676_" class="st0" d="M340.1,89.4c0,0-0.1,0.1-0.1,0.1c0,0.1,0,0.2,0.1,0.3c0.1-0.1,0.1-0.2,0.2-0.3
							C340.2,89.4,340.2,89.4,340.1,89.4z"/>
						<path id="XMLID_675_" class="st0" d="M363.2,156.3L363.2,156.3c0,0-0.1,0-0.1,0C363.2,156.2,363.2,156.2,363.2,156.3z"/>
						<polygon id="XMLID_674_" class="st0" points="358.1,103.8 358.2,103.5 358,103.7 						"/>
						<path id="XMLID_673_" class="st0" d="M355.9,160c-0.1,0-0.2-0.1-0.3-0.1C355.7,159.9,355.8,159.9,355.9,160z"/>
						<path id="XMLID_672_" class="st0" d="M353.8,162.3l-0.6,0.1C353.5,162.3,353.7,162.3,353.8,162.3z"/>
						<path id="XMLID_671_" class="st0" d="M351.9,163.7c0.1,0.1,0.2,0.3,0.3,0.3c0,0,0,0,0,0L351.9,163.7z"/>
						<path id="XMLID_670_" class="st0" d="M372.4,131.4c0,0,0-0.1,0-0.1C372.3,130.9,372.3,131.1,372.4,131.4z"/>
						<path id="XMLID_669_" class="st0" d="M368.1,142.5c-0.1-0.2-0.2-0.4-0.2-0.6C367.7,142,367.6,142.1,368.1,142.5z"/>
						<path id="XMLID_668_" class="st0" d="M379.9,120C379.9,120,379.9,120,379.9,120C379.9,120,380,120,379.9,120L379.9,120z"/>
						<path id="XMLID_667_" class="st0" d="M368.2,141.4c-0.3,0.1-0.4,0.2-0.3,0.4C368,141.8,368.2,141.7,368.2,141.4z"/>
						<path id="XMLID_666_" class="st0" d="M344.6,170.5l-0.1,0c0.1,0.1,0.1,0.1,0.1,0.1L344.6,170.5z"/>
						<path id="XMLID_665_" class="st0" d="M344.6,170.7l0,0.2C344.6,170.8,344.6,170.8,344.6,170.7z"/>
						<path id="XMLID_664_" class="st0" d="M344.6,171.3l0-0.4C344.5,170.9,344.4,171,344.6,171.3z"/>
						<path id="XMLID_663_" class="st0" d="M347.2,168.8l-0.3-0.3C346.9,168.6,347,168.7,347.2,168.8z"/>
						<path id="XMLID_662_" class="st0" d="M347.7,168.1c-0.2,0.1-1-0.2-1,0.2l0.2,0.3C346.6,168,348.1,168.7,347.7,168.1z"/>
						<path id="XMLID_661_" class="st0" d="M354.2,168.6l-0.8,0.4c0.4,0.2,1,0.4,0.8,0.8C355.8,169.9,353.3,169.3,354.2,168.6z"/>
						<path id="XMLID_660_" class="st0" d="M356.3,167.1c-0.1,0.5,0.5,0.4,0.7,0.6C356.9,167.2,356.8,167.1,356.3,167.1z"/>
						<path id="XMLID_659_" class="st0" d="M367.1,151.9l0.8,0.6C368,152.2,367.7,152.3,367.1,151.9z"/>
						<polygon id="XMLID_658_" class="st0" points="364.6,146.1 363.9,146.1 364.6,146.7 						"/>
						<polygon id="XMLID_657_" class="st0" points="371.8,148.3 371.9,148.5 371.9,147.8 						"/>
						<path id="XMLID_656_" class="st0" d="M389.4,124.6l-0.9-0.9C388.4,124,389.4,125.1,389.4,124.6z"/>
						<path id="XMLID_655_" class="st0" d="M404.9,113.5c1.1-0.1,2.1-0.3,2.5-0.4c0-0.1-0.3-0.1-0.9-0.1c0,0.1-0.2,0.1-0.4,0.2
							C405.4,113.4,404.7,113.5,404.9,113.5z"/>
						<polygon id="XMLID_654_" class="st0" points="364.6,95.3 365,95 364.4,95.2 						"/>
					</g>
				</g>
			</g>
		</g>
	</g>
</g>
</svg>
