<?xml version="1.0" encoding="utf-8"?>
<!-- Generator: Adobe Illustrator 19.0.0, SVG Export Plug-In . SVG Version: 6.00 Build 0)  -->
<svg version="1.1" id="Capa_1" xmlns="http://www.w3.org/2000/svg" xmlns:xlink="http://www.w3.org/1999/xlink" x="0px" y="0px"
	 viewBox="0 0 80.5 80.5" style="enable-background:new 0 0 80.5 80.5;" xml:space="preserve">
<style type="text/css">
	.st0{fill:none;stroke:#FFF9F2;stroke-width:3;stroke-miterlimit:10;}
	.st1{fill:#FFF9F2;stroke:#FFF9F2;stroke-miterlimit:10;}
</style>
<g id="XMLID_960_">
	<circle id="XMLID_228_" class="st0" cx="40.2" cy="40.2" r="38.7"/>
	<path id="XMLID_223_" class="st1" d="M66.1,22.1c0,0-4,1.8-5.9,1.9c0,0-19.3-8.6-18.6,12.4c0,0-17.6-4.6-22.9-16.6
		c0,0-2,9.9,5.7,15.8c0,0-4.1-0.6-6.6-1.7c0,0,0.6,6.7,9.8,10.4c0,0-4.8,1-6.9,0.4c0,0,4.5,6.4,12,7.2c0,0-11.2,3.7-18.9,2.1
		c0,0,48.1,25.2,48.7-23.7c0,0,4.2-3.4,3.8-4.7c0,0-2,1.6-4.8,1.6C61.7,27.1,66.8,23.8,66.1,22.1z"/>
</g>
</svg>
