<?xml version="1.0" encoding="utf-8"?>
<!-- Generator: Adobe Illustrator 19.0.0, SVG Export Plug-In . SVG Version: 6.00 Build 0)  -->
<svg version="1.1" id="Capa_1" xmlns="http://www.w3.org/2000/svg" xmlns:xlink="http://www.w3.org/1999/xlink" x="0px" y="0px"
	 viewBox="0 0 80.2 80.2" style="enable-background:new 0 0 80.2 80.2;" xml:space="preserve">
<style type="text/css">
	.st0{fill:none;stroke:#FFF9F2;stroke-width:3;stroke-miterlimit:10;}
	.st1{fill:#FFF9F2;stroke:#FFF9F2;stroke-miterlimit:10;}
</style>
<g id="XMLID_19_">
	<circle id="XMLID_221_" class="st0" cx="40.1" cy="40.1" r="38.6"/>
	<path id="XMLID_211_" class="st1" d="M65.7,33.7C65.7,27.8,60.9,23,55,23H24.3c-5.9,0-10.6,4.8-10.6,10.6v13.7
		c0,5.9,4.8,10.6,10.6,10.6H55c5.9,0,10.6-4.8,10.6-10.6V33.7z M51.3,40.9l-7.7,4.3l-8.4,4.4c-0.8,0.5-2.6-0.1-2.6-1.1v-8.7v-8.7
		c0-0.9,1.7-1.5,2.6-1.1l8.1,4.4l7.8,4.3C52,39.2,52.2,40.4,51.3,40.9z"/>
</g>
</svg>
